<svg xmlns="http://www.w3.org/2000/svg" width="576" height="720" fill="none" xmlns:v="https://vecta.io/nano"><style><![CDATA[.B{fill:#fff}.C{fill:#e83323}.D{fill:#f6cc47}.E{fill:#111ef7}.F{fill:#88d84a}.G{fill:#fdf5da}.H{fill:#1c3b87}.I{fill-rule:evenodd}]]></style><g clip-path="url(#A)"><path d="M553.717 171.893l-3.515-1.832c-2.033-1.048-4.056-1.966-6.219-2.718 2.152 1.755 4.116 3.566 5.975 5.633l3.246 3.799-.047.448c-2.259-1.097-4.383-2.703-6.544-3.985-3.738-2.218-7.633-4.242-11.47-6.284 4.06 3.616 8.251 6.65 10.765 11.644-6.34-5.172-15.49-9.858-23.648-10.667 4.922 2.348 9.575 5.431 12.953 9.784-2.971-1.496-7.031-3.384-10.388-3.582 6.775 3.073 12.336 5.834 17.219 11.707 3.764 4.529 6.152 9.604 5.597 15.56-.807-2.855-2.086-5.484-3.31-8.18.028 1.263.199 2.495.372 3.746-1.869-4.088-4.428-7.593-7.143-11.149.748 3.046 1.677 6.18 1.736 9.326-1.088-1.673-2.012-3.456-3.101-5.135-1.678-2.586-3.68-5.014-5.725-7.321.36 1.996.683 3.975.729 6.005-2.039-2.587-4.386-4.824-6.924-6.918a44.85 44.85 0 0 1 .272 3.945c-2.278-1.738-3.972-5.255-6.771-6.218-.506.574.072 2.219.102 3.077l.007.264c-1.418-.788-2.786-1.635-4.236-2.37-1.154.136-2.228.425-3.343.739 2.644.852 5.31 1.965 7.757 3.272 9.29 4.963 15.118 10.329 18.301 20.582-4.768-5.23-9.981-10.322-16.216-13.808.011.233.6.568.809.721 3.516 2.581 5.105 4.936 7.112 8.753 3.647 6.934 5.973 14.704 3.566 22.409-.601-4.155-1.625-7.749-3.929-11.321.956 6.083.586 10.928-2.683 16.251l.116-.513c.5-2.165.725-4.478.393-6.689-.396 1.93-.792 3.884-1.518 5.722-1.883 4.768-6.358 8.578-10.997 10.569 3.265-4.848 5.806-10.34 7.613-15.89-1.364 1.678-2.783 3.052-4.462 4.42 1.579-4.881 2.603-9.682 2.753-14.836-1.534 2.343-3.18 4.482-5.214 6.418-.021-1.773.319-3.59.464-5.359.269-3.273.399-6.501.305-9.785-1.321 1.872-2.056 3.486-2.779 5.663-.711-4.471-.42-8.811-.13-13.292-2.258 3.76-4.982 7.006-8.667 9.454 1.469-3.837 2.698-7.666 3.839-11.612-.923 1.028-1.912 1.988-2.967 2.88s-2.168 1.708-3.336 2.447c1.672-2.312 2.509-4.943 2.87-7.768.081-.632.108-1.045-.289-1.56-.619-.035-2.939 1.832-3.726 2.187-.063.028-.127.054-.19.081.241-1.122.306-2.226.013-3.35-.129-.495-.257-.984-.722-1.264-.421.576-.322 1.53-.25 2.215.364 3.473 1.256 6.94 1.798 10.394.75 4.772 1.231 9.7 1.582 14.513.454 6.233.829 12.584.852 18.831.027 7.703-.434 15.35-1.081 23.018-1.424 16.893-4.005 33.654-9.212 49.818l-9.531-5.358c4.012-8.62 6.441-18.348 8.567-27.581.857-3.721 1.842-7.419 2.546-11.174 3.523-18.798 4.927-40.734 2.977-59.793-.47-4.593-1.389-9.133-2.09-13.692-.396 1.25-.726 2.488-1.009 3.768-.342-1.083-.749-2.126-1.178-3.178-.139 5.124.389 10.438 1.146 15.501-1.884-2.61-2.895-5.283-3.743-8.355-.518 5.224-.337 10.281.357 15.483-2.931-3.311-6.913-9.398-8.373-13.536-.397 5.329-.154 10.306.538 15.615-2.736-1.727-4.711-3.778-6.582-6.412-.183 4.508-.052 8.912.336 13.41-2.24-1.704-3.821-3.223-5.393-5.569-.035 4.427.735 8.921-.131 13.29-.568-1.556-.925-3.151-1.553-4.698.063 2.102-.041 4.207.078 6.31.145 2.569.596 5.102 1.024 7.637-.464-.575-.927-1.154-1.361-1.752-5.101-7.029-5.222-11.686-3.823-19.897-1.047 2.337-2.109 4.605-2.7 7.109l-.12-.477c-1.831-8.07.126-14.568 4.476-21.314-3.372 2.902-5.563 7.11-7.396 11.079.035-3.03.486-6.447 1.589-9.282 2.582-6.637 8.45-10.346 14.702-13.092-5.415 1.126-10.019 3.294-14.7 6.13.903-1.211 1.846-2.39 2.828-3.538 6.518-7.465 15.453-12.331 25.46-13.023-1.28-.389-2.561-.792-3.876-1.045-1.499-.289-3.073-.321-4.493-.919-2.888 2.04-6.073 3.618-8.891 5.73 1.068-2.528 2.472-4.694 4.072-6.907-3.833 2.296-7.308 4.746-10.584 7.784l-.063-.05-.143.236-.194.033c-.016-.062-.039-.124-.047-.188-.244-2.171 3.507-6.545 4.916-8.102-.577.325-1.142.668-1.697 1.028a31.5 31.5 0 0 0-1.626 1.135c-.53.396-1.047.808-1.55 1.237s-.993.872-1.468 1.332a31.4 31.4 0 0 0-1.379 1.424c-.444.489-.872.992-1.284 1.509a31.02 31.02 0 0 0-1.185 1.588 31.89 31.89 0 0 0-1.08 1.661c.471-3.122 1.096-5.281 2.566-8.075-3.033 2.54-5.945 5.306-8.306 8.479-.065-2.413.649-4.381 1.436-6.607-3.15 2.983-6.061 6.088-8.961 9.308.473-1.524.981-2.971 1.648-4.423-3.784 2.739-7.391 5.5-10.807 8.691 3.561-7.316 9.852-13.906 16.595-18.393 2.772-1.845 5.74-3.216 8.847-4.401 8.467-3.228 13.409-3.221 22.231-1.427-3.654-2.277-13.372-2.263-17.878-2.266 2.052-1.337 4.307-2.442 6.44-3.655-5.247 1.327-10.746 2.108-15.868 3.83l-.291.099-.136-.178c.644-1.853 3.62-3.923 5.158-5.203-1.81.76-3.8 1.182-5.69 1.711-2.45.666-4.864 1.445-7.241 2.335 2.207-2.311 4.658-4.004 7.392-5.627-4.267.421-8.368 2.326-12.007 4.47.866-1.498 1.658-2.581 3.006-3.679-2.774.958-5.65 1.521-8.473 2.308-1.771.494-3.496 1.168-5.213 1.82l.668-.689.685-.672.701-.657.716-.639.731-.622.746-.605.76-.587.773-.569.787-.551.8-.532.813-.513.824-.493.836-.474.847-.454.858-.434.867-.413.878-.393.886-.372.895-.351.904-.33.911-.309.918-.287.925-.265.931-.243.936-.221.942-.2.946-.177.95-.154.954-.132.956-.11.959-.087.961-.065c10.097-.5 18.533 2.692 26.241 9.095 1.54 1.279 2.864 2.759 4.349 4.093-2.605-4.427-9.231-11.512-13.269-14.828 5.078.674 8.88 2.402 12.783 5.749-4.994-6.622-11.961-11.171-19.067-15.219 3.6.017 6.922.831 10.267 2.123-3.714-3.604-7.966-5.495-12.829-7.032 2.865-.758 5.097-.691 7.984-.073-5.883-5.49-10.87-8.355-18.866-9.95 5.21-.357 10.133.126 15.102 1.83 9.96 3.418 16.842 11.135 21.383 20.352.694-2.148.916-4.582 1.284-6.818 1.359 4.9 1.125 10.26 2.305 15.204 1.112-3.763 2.009-7.758 2.634-11.636.608 3.912.318 7.77-.76 11.567 4.394-6.554 6.579-12.205 13.364-17.133 11.562-8.398 25.964-10.561 39.913-8.386-2.696.562-5.468.869-8.182 1.358-3.522.635-6.975 1.467-10.433 2.375-2.26.593-4.485 1.115-6.601 2.125 3.838-.337 7.564.388 11.342.995-4.565.316-9.645.7-13.641 3.103 3.916.259 7.127 1.128 10.842 2.313-6.399.646-12.711 1.426-18.668 3.981 4.223-.678 7.837-.051 11.943 1.115-6.862.742-15.658 2.328-21.358 6.312 5.466-1.937 10.782-2.465 16.467-1.25-5.783.779-13.319 4.4-17.711 8.164-1.379 1.182-2.494 2.502-3.603 3.933 3.344-2.732 6.949-4.623 11.073-5.947 1.058-.338 2.127-.634 3.208-.889s2.171-.467 3.269-.638a42.74 42.74 0 0 1 3.309-.384c1.108-.085 2.218-.128 3.33-.127a45.3 45.3 0 0 1 9.42.902l.539.166c7.335 2.156 16.192 12.952 16.192 12.952zm-43.221.862c3.075-.265 5.846-.315 8.921.182 1.26.204 2.494.537 3.756.722l.156.022c-1.192-.534-2.553-.896-3.811-1.257-3.141-.901-6.034-1.295-9.022.331z" fill="#2d6438"/></g><path d="M523.526 344.916c-3.891-8.014-8.88-15.459-14.591-22.245-5.871-6.976-12.494-13.311-19.647-18.915-6.998-5.482-14.525-10.291-22.446-14.275-7.439-3.74-15.258-6.733-23.347-8.654-.107-.026-.197-.066-.28-.111v86.923h86.923v-3.657c-1.395-6.604-3.677-13.018-6.612-19.066z" class="D"/><g clip-path="url(#B)" class="E"><path d="M369.195 103.029l-1.658-.834 18.265.463A364.22 364.22 0 0 1 364.045.841a265.53 265.53 0 0 1-13.494 86.696c-2.429 7.329-5.171 15.385-2.236 22.527 2.022 4.921 6.432 8.449 10.988 11.205 6.645 4.021 13.954 6.88 20.498 11.064s12.501 10.089 14.333 17.63c3.519-9.234 1.754-19.984-3.392-28.422s-13.365-14.703-22.352-18.834c-3.562-1.637-7.44-3.098-9.861-6.178s-2.433-8.439 1.062-10.216c2.506-1.275 5.613-.165 7.832 1.562s3.952 4.033 6.268 5.627 5.622 2.325 7.866.632l-22.488-1.553c2.171 4.491 5.881 7.823 10.126 10.449z"/><path d="M406.665 156.524c-4.838-4.848-11.718-6.936-18.298-8.852l-42.427-12.351c-1.778-.517-3.642-1.086-4.924-2.42-2.752-2.865-1.322-7.973 1.834-10.385s7.347-2.867 11.306-3.233c-6.605-.919-13.227 3.075-16.822 8.683s-4.579 12.531-4.348 19.186c.14 4.071.783 8.333 3.249 11.576 3.603 4.739 10.054 6.1 15.952 6.938 11.285 1.604 22.714 2.53 33.737 5.432 10.818 2.848 19.03 7.935 27.747 14.629 2.59-2.567.513-11.834-.18-15.265-1.043-5.155-3.055-10.159-6.826-13.938zm-90.599 20.785c-.178 3.579-.158 7.666 2.49 10.083 1.621 1.479 3.884 1.974 6.035 2.415l52.869 10.819c10.019 2.051 20.092 4.117 29.631 7.8s18.608 9.097 25.208 16.898c-.157-11.936-2.365-24.784-10.906-33.135-7.917-7.741-19.545-9.996-30.46-11.897l-58.331-10.164c-1.768-.308-3.589-.636-5.101-1.602s-2.652-2.742-2.317-4.503 2.582-3.037 4.065-2.027c-1.929-1.36-8.841 1.408-10.273 3.131-2.517 3.026-2.727 8.489-2.91 12.182zm-8.118 27.237l90.856 13.343c8.508 1.25 17.089 2.518 25.15 5.509s15.668 7.88 20.421 15.037 6.222 16.799 2.377 24.481c-16.762-12.756-37.591-19.077-58.37-22.581s-41.922-4.435-62.736-7.729c-5.624-.891-11.307-1.982-16.394-4.538s-9.574-6.782-11.256-12.215c-2.887-9.328 3.647-19.686 13.421-20.755-2.416.657-6.911.993-8.575 3.021-3.108 3.789 1.922 5.959 5.106 6.427zm-18.806 30.25c-.838.55-1.695 1.293-1.777 2.29-.173 2.114 2.802 2.735 4.924 2.646 8.863-.375 17.965.823 25.866 4.85s14.48 11.14 16.553 19.754c-6.407.229-12.974.436-19.061-1.574-6.69-2.209-13.07-7.086-19.997-5.794-2.864.535-5.819 2.114-8.523 1.029-2.095-.842-3.297-3.069-3.872-5.25-1.556-5.9.496-12.599 5.091-16.62 2.876-2.517 6.58-3.821 10.366-4.048-3.368-.097-6.754.869-9.57 2.717z"/></g><path d="M167.919 692.56c-3.907-7.959-8.919-15.353-14.655-22.094-5.897-6.929-12.548-13.222-19.733-18.788-7.029-5.444-14.59-10.222-22.546-14.178-7.471-3.715-15.325-6.688-23.449-8.596a1.12 1.12 0 0 1-.282-.11v86.337h87.307v-3.633c-1.401-6.559-3.693-12.93-6.642-18.938z" class="C"/><path d="M353.426 324.178v43.461h44.894 44.895l-89.789-86.923v43.462z" class="B"/><path d="M185.11 125.618c3.907 7.96 8.919 15.354 14.655 22.094 5.897 6.929 12.549 13.222 19.734 18.788 7.028 5.445 14.589 10.222 22.545 14.178 7.471 3.716 15.325 6.688 23.449 8.597.108.025.198.064.282.11v-86.337h-87.307v3.633c1.401 6.558 3.693 12.93 6.642 18.937z" class="D"/><path d="M443.215 324.177v-43.461H398.32h-44.894l89.789 86.923v-43.462z" class="C"/><g clip-path="url(#C)"><path d="M174.561 628.794v-87.307H87.254v87.307h87.307z" fill="#2d6438"/><g class="B"><path d="M154.674 554.399c0 3.852 3.123 6.975 6.975 6.975a6.98 6.98 0 0 0 6.976-6.975 6.98 6.98 0 0 0-6.976-6.976c-3.853 0-6.975 3.123-6.975 6.976zm0 20.494c0 3.852 3.123 6.975 6.975 6.975a6.98 6.98 0 0 0 6.976-6.975c0-3.852-3.123-6.975-6.976-6.975s-6.975 3.123-6.975 6.975zm0 20.494c0 3.853 3.123 6.976 6.975 6.976a6.98 6.98 0 0 0 6.976-6.976c0-3.853-3.123-6.975-6.976-6.975s-6.975 3.123-6.975 6.975z"/><use href="#Q"/><use href="#R"/><path d="M141.155 581.868c-3.852 0-6.975-3.123-6.975-6.975s3.123-6.975 6.975-6.975 6.975 3.123 6.975 6.975-3.123 6.975-6.975 6.975zm0 20.495c-3.852 0-6.975-3.123-6.975-6.976s3.123-6.975 6.975-6.975 6.975 3.123 6.975 6.975a6.98 6.98 0 0 1-6.975 6.976zm0 20.494c-3.852 0-6.975-3.123-6.975-6.975a6.98 6.98 0 0 1 6.975-6.976c3.852 0 6.975 3.123 6.975 6.976s-3.123 6.975-6.975 6.975zm-20.495-61.483c-3.852 0-6.975-3.123-6.975-6.975a6.98 6.98 0 0 1 6.975-6.976 6.98 6.98 0 0 1 6.976 6.976c0 3.853-3.123 6.975-6.976 6.975zm0 20.494c-3.852 0-6.975-3.123-6.975-6.975s3.123-6.975 6.975-6.975a6.98 6.98 0 0 1 6.976 6.975c0 3.852-3.123 6.975-6.976 6.975zm0 20.495c-3.852 0-6.975-3.123-6.975-6.976s3.123-6.975 6.975-6.975a6.98 6.98 0 0 1 6.976 6.975 6.98 6.98 0 0 1-6.976 6.976zm0 20.494c-3.852 0-6.975-3.123-6.975-6.975a6.98 6.98 0 0 1 6.975-6.976 6.98 6.98 0 0 1 6.976 6.976c0 3.853-3.123 6.975-6.976 6.975zm-27.469-68.458c0 3.852 3.123 6.975 6.975 6.975s6.975-3.123 6.975-6.975-3.122-6.976-6.975-6.976-6.975 3.123-6.975 6.976zm0 20.494c0 3.852 3.123 6.975 6.975 6.975s6.975-3.123 6.975-6.975-3.122-6.975-6.975-6.975-6.975 3.123-6.975 6.975zm0 20.494c0 3.853 3.123 6.976 6.975 6.976s6.975-3.123 6.975-6.976-3.122-6.975-6.975-6.975-6.975 3.123-6.975 6.975zm6.975 27.47c-3.852 0-6.975-3.123-6.975-6.975a6.98 6.98 0 0 1 6.975-6.976c3.852 0 6.975 3.123 6.975 6.976s-3.122 6.975-6.975 6.975z"/></g></g><g clip-path="url(#D)" class="D"><path d="M89.721 279.009h44.139c24.377 0 44.139 19.544 44.139 43.654s-19.762 43.653-44.139 43.653H89.721v-87.307z"/></g><g clip-path="url(#E)"><path d="M89.721 190.731h88.278v-87.307H89.721v87.307z" class="B"/><g class="E"><use href="#S"/><path d="M153.722 190.731h7.945v-87.307h-7.945v87.307zm15.89 0h8.387v-87.307h-8.387v87.307zm-63.559 0h7.945v-87.307h-7.945v87.307zm-16.332 0h8.386v-87.307h-8.386v87.307zm32.221 0h7.945v-87.307h-7.945v87.307z"/></g></g><g clip-path="url(#F)"><g class="F"><path d="M331.415 498.217c0 12.086-9.907 21.885-22.128 21.885 12.181 0 22.058 9.736 22.122 21.768h.012c.064-11.993 9.878-21.699 22.005-21.763v-.011c-12.167-.064-22.011-9.832-22.011-21.879z"/><path d="M309.287 476.331c12.221 0 22.128 9.799 22.128 21.886 0-12.048 9.844-21.816 22.011-21.88v-.011c-12.127-.064-21.941-9.77-22.005-21.763h-.012c-.064 12.032-9.941 21.768-22.122 21.768zm0 43.771c-12.221 0-22.128-9.799-22.128-21.885 0 12.047-9.844 21.815-22.011 21.879v.011c12.127.064 21.941 9.77 22.005 21.763h.012c.064-12.032 9.941-21.768 22.122-21.768z"/><path d="M265.148 476.326v.011c12.167.064 22.011 9.832 22.011 21.88 0-12.087 9.907-21.886 22.128-21.886-12.181 0-22.058-9.736-22.122-21.768h-.012c-.064 11.993-9.878 21.699-22.005 21.763z"/></g><g class="B"><path d="M265.148 520.107v21.763h22.005c-.064-11.993-9.878-21.699-22.005-21.763z"/><path d="M287.159 498.217c0-12.048-9.844-21.816-22.011-21.88v43.759c12.167-.064 22.011-9.832 22.011-21.879z"/><path d="M287.153 454.563h-22.005v21.763c12.127-.064 21.941-9.77 22.005-21.763zm22.134 65.539c-12.181 0-22.058 9.736-22.122 21.768h44.244c-.064-12.032-9.941-21.768-22.122-21.768z"/><path d="M287.234 500.022c1.008 12.045 11.699 21.002 23.878 20.005s21.236-11.57 20.228-23.616-11.699-21.002-23.878-20.005-21.236 11.57-20.228 23.616z"/><path d="M309.287 476.331c12.181 0 22.058-9.736 22.122-21.768h-44.244c.064 12.032 9.941 21.768 22.122 21.768zm22.134 65.539h22.005v-21.763c-12.127.064-21.941 9.77-22.005 21.763z"/><path d="M331.415 498.217c0 12.047 9.844 21.815 22.011 21.879v-43.759c-12.167.064-22.011 9.832-22.011 21.88z"/><path d="M353.426 476.326v-21.763h-22.005c.064 11.993 9.878 21.699 22.005 21.763z"/></g></g><g clip-path="url(#G)"><path d="M177.999 279.009v-88.278H89.721v88.278h88.278z" class="F"/><path d="M177.999 234.87h0c0-24.377-19.762-44.139-44.139-44.139h0c-24.377 0-44.139 19.762-44.139 44.139h0c0 24.377 19.762 44.139 44.139 44.139h0c24.377 0 44.139-19.762 44.139-44.139z" class="B"/><path d="M153.814 234.87c0-11.021-8.933-19.954-19.954-19.954s-19.955 8.933-19.955 19.954 8.934 19.955 19.955 19.955 19.954-8.934 19.954-19.955z" class="C"/></g><g clip-path="url(#H)" class="E"><path d="M177.999 526.88l31.534-5.441 19.826 20.462h3.039l4.235-29.321 28.673-14.237v-.096-.096l-28.673-14.237-4.235-29.321h-3.039l-19.826 20.462-31.534-5.441v.338l14.786 28.295-14.786 28.295v.338z"/></g><g clip-path="url(#I)" class="D"><path d="M199.764 374.503c10.563 5.138 20.217 12.094 28.919 19.95 8.932 8.063 16.929 17.189 23.784 27.078 4.984 7.19 9.397 14.847 12.839 22.909v-77.154h-87.284c7.545 1.284 14.863 3.87 21.742 7.217zm-15.077 61.3c-2.078-1.859-4.322-3.497-6.688-4.927v23.717h20.693c-3.653-6.98-8.122-13.525-14.005-18.79z"/><path d="M220.325 417.906c-7.12-7.127-14.566-14.011-22.702-19.973-5.964-4.37-12.518-8.567-19.624-10.931v19.005c4.61 2.128 9.003 4.709 13.079 7.763 6.013 4.505 11.279 9.891 15.881 15.82 4.572 5.893 8.516 12.233 12.159 18.734l3.409 6.269h23.317c-1.976-5.189-4.204-10.272-7.042-15.07-4.851-8.199-11.786-14.92-18.477-21.617z"/></g><g clip-path="url(#J)" class="D"><path d="M331.418 447.73c-10.679-5.139-20.441-12.095-29.24-19.951-9.031-8.063-17.117-17.189-24.048-27.077-5.04-7.19-9.502-14.848-12.982-22.91v77.154h88.254c-7.629-1.284-15.028-3.869-21.984-7.216zm15.667-61.3a42.5 42.5 0 0 0 6.341 4.927v-23.718h-19.618c3.463 6.981 7.7 13.526 13.277 18.791zm-37.798 17.807c7.199 7.127 16.07 14.101 24.296 20.062 6.03 4.371 12.657 8.568 19.843 10.932v-19.006c-4.661-2.127-9.104-4.709-13.225-7.762-6.08-4.505-11.405-9.891-16.057-15.821-4.624-5.892-8.611-12.232-12.295-18.733-1.176-2.076-2.562-3.83-2.562-6.27h-24.461c0 13.317 16.025 28.247 24.461 36.598z"/></g><g clip-path="url(#K)"><path d="M201.304 574.423c-1.789 3.063-2.371 6.673-1.829 10.158.34 2.183 1.049 4.312 2.006 6.303.673 1.402 1.183 2.864 2.026 4.184a13.05 13.05 0 0 0 2.556 2.925c5.444 2.624 12.379 2.166 17.767-.376 3.563-1.681 6.679-4.302 8.517-7.796 2.029-3.856 2.05-8.286.908-12.41-.965-3.484-2.912-6.754-5.919-8.882-2.688-1.902-5.916-2.849-9.176-2.925-6.576-.152-13.49 3.053-16.856 8.819z" class="E"/><g class="D"><path d="M260.052 628.185c-9.608-.445-19.053-2.627-27.82-6.548-8.382-3.748-15.99-9.049-22.696-15.253-6.876-6.36-12.822-13.669-18.048-21.4-5.392-7.976-10.028-16.437-14.146-25.118-1.083-2.284-2.09-4.571-2.938-6.947v75.449h87.708c.001-.039-.001-.077-.001-.116l-2.059-.067zm-70.724-85.718c9.797 3.267 19.035 7.737 27.625 13.438 9.214 6.115 17.675 13.405 24.98 21.67 7.062 7.992 13.1 16.935 17.226 26.758 1.457 3.467 2.652 7.057 3.522 10.718v-73.564h-76.472c1.045.311 2.086.635 3.119.98z"/></g></g><g clip-path="url(#L)"><path d="M264.932 279.494v87.792h-43.467-43.466v-87.792-87.792h43.466 43.467v87.792z" class="G"/><path d="M264.932 279.494v87.792h-43.467l-43.466-87.792 43.466-87.792h43.467v87.792z" class="C"/><path d="M265.306 279.494v87.792h-19.493l-43.466-87.792 43.466-87.792h19.493v87.792z" class="G"/><path d="M265.306 279.494v87.792h-.284l-43.986-87.792 43.986-87.792h.284v87.792z" class="C"/></g><g clip-path="url(#M)" class="D"><path d="M353.426 278.761l-19.402-.001v90h19.402v-89.999zm-44.624 0l-24.252-.001v90h24.252v-89.999z"/></g><g clip-path="url(#N)"><g class="C"><path d="M209.583 688.345l115.937 4.503c1.91.063 3.929.098 5.595-.879 1.433-.841 2.402-2.317 3.319-3.742l9.169-14.243c.865-1.771-1.407-3.718-34.245-3.402-12.295.118-25.051-.247-37.335-.834-10.526-.503-36.739-2.316-46.978 0-7.294 1.649-18.05 14.834-15.462 18.597z"/><path d="M217.396 709.978c.02.675.069 1.432.42 1.864.268.33.641.377.989.406a77.38 77.38 0 0 0 11.136.148c.751-.045 1.559-.132 2.138-.843.763-.939.851-2.598.879-4.067l.425-22.003c.012-.582.004-1.237-.276-1.646-.27-.393-.692-.41-1.07-.402-3.431.069-11.249-2.119-13.743 2.398-2.512 4.549-1.074 18.605-.898 24.145zm19.5-41.766c.017.992.057 2.105.349 2.74.223.485.533.553.822.597 3.081.465 6.17.538 9.254.216.624-.065 1.296-.193 1.777-1.238.634-1.38.707-3.817.73-5.976l.391-33.197c-.021-3.537-1.695-2.45-3.475-2.743-1.219-.2-2.403-.848-3.614-1.142-2.298-.557-4.891-.396-5.955 3.013-2.087 6.683-.425 29.591-.279 37.73z"/><path d="M235.284 619.431l-7.403.423c-1.311.27-1.496.647-1.614.997-1.257 3.736-1.452 7.483-.584 11.222.176.757.522 1.572 3.346 2.154 3.729.77 10.315.858 16.15.887l61.28.3 30.819.157c.856.005 1.765-.007 2.49-.508 2.102-1.454 3.266-7.375 2.265-9.677-.922-2.12-3.125-3.146-5.052-3.784-1.899-.627-3.87-.991-5.833-1.266-18.06-2.531-73.869-1.082-95.864-.905zm-.045 23.697l-7.403.423c-1.31.27-1.495.647-1.613.997-1.258 3.736-1.453 7.483-.584 11.222.175.757.521 1.572 3.345 2.155 3.729.769 10.315.857 16.15.886l87.358.428c2.114.011 5.014.901 6.97-.475 1.821-1.28 2.71-4.387 2.942-6.612.097-.927.092-1.882-.157-2.774-1.238-4.44-7.716-4.932-11.144-5.345-18.06-2.531-73.868-1.082-95.864-.905z"/><path d="M320.672 671.263c.016 1.005.053 2.133.32 2.777.204.491.489.561.754.605a30.2 30.2 0 0 0 8.478.219c.571-.066 1.187-.195 1.628-1.255.581-1.399.647-3.869.669-6.058l.324-32.77c.008-.868.003-1.843-.211-2.452-.205-.585-.526-.61-.814-.599-2.613.103-8.565-3.156-10.464 3.572-1.912 6.774-.817 27.71-.684 35.961zm-19.052 44.963c.019.749.066 1.588.401 2.067.256.366.613.418.946.451a63.68 63.68 0 0 0 10.642.163c.717-.049 1.49-.145 2.043-.934.73-1.042.813-2.881.84-4.511l.407-24.397c.01-.646.003-1.372-.265-1.825-.257-.436-.66-.455-1.022-.447-3.279.077-10.75-2.349-13.134 2.66-2.4 5.044-1.026 20.63-.858 26.773zm25.322-8.15c.017.749.057 1.59.343 2.07.219.366.524.418.808.451a46.52 46.52 0 0 0 9.092.163c.614-.049 1.274-.146 1.746-.935.624-1.043.695-2.884.718-4.515l.347-24.423c.009-.646.004-1.374-.225-1.827-.221-.436-.565-.455-.874-.447-2.802.077-9.185-2.351-11.222 2.662-2.05 5.049-.876 20.652-.733 26.801zm-82.93-.998c.018.577.062 1.224.375 1.593.238.282.571.322.881.348a71.86 71.86 0 0 0 9.919.125c.669-.038 1.39-.112 1.905-.72.68-.802.758-2.219.783-3.475l.379-18.799c.01-.497.004-1.057-.246-1.406-.24-.336-.616-.351-.953-.344-3.057.059-10.021-1.81-12.243 2.049-2.237 3.886-.956 15.896-.8 20.629z"/></g><g class="G"><path d="M231.613 651.233c9.433-.547 18.876-.897 28.323-1.048.783-.012.786-1.241 0-1.229-9.447.151-18.89.501-28.323 1.049-.78.045-.785 1.274 0 1.228zm72.017.035l-26.292.873c-.783.026-.786 1.255 0 1.229l26.292-.873c.782-.027.786-1.256 0-1.229zm22.457-23.695l-49.359.582c-.785.001-.786 1.23 0 1.229l49.359-.582c.783-.017.786-1.246 0-1.229zm-83.359-2.937a436.9 436.9 0 0 0 36.226 1.835c.785.008.785-1.221 0-1.229a436.9 436.9 0 0 1-36.226-1.835c-.781-.072-.776 1.157 0 1.229zm85.587 50.407c-18.722 1.184-37.488 1.518-56.24 1-.785-.022-.784 1.207 0 1.228a619.51 619.51 0 0 0 56.24-.999c.779-.05.785-1.279 0-1.229zm-90.442 4.411c8.752.975 17.526 1.739 26.314 2.292.784.049.781-1.18 0-1.229-8.788-.553-17.562-1.317-26.314-2.292-.779-.087-.773 1.143 0 1.229zm-17.995 3.783l14.365.596c.784.033.783-1.196 0-1.229l-14.365-.596c-.785-.033-.783 1.196 0 1.229zm12.341-9.995a416.17 416.17 0 0 0 22.254.799c.785.007.786-1.222 0-1.229-7.424-.067-14.844-.334-22.254-.799-.784-.049-.781 1.18 0 1.229zm90.23 10.405c-11.598-.259-23.199-.269-34.797-.029-.784.016-.786 1.245 0 1.229 11.598-.24 23.199-.23 34.797.029.785.018.785-1.211 0-1.229z"/></g></g><path d="M43.462 541.487H0v42.984 42.984l86.924-85.968H43.462z" class="E"/><g clip-path="url(#O)" class="H"><path d="M100.921 520.243c-2.242-16.271-5.57-33.352-9.875-49.202-1.742-6.412-3.68-12.849-7.028-18.588-8.73-14.966-25.581-23.047-37.465-35.655a403.3 403.3 0 0 0 42.397 24.52c1.252.626 2.652-.509 2.326-1.87a238.45 238.45 0 0 1-6.081-71.111c5.63-3.897 9.573 30.301 13.239 47.75 15.322-20.548 15.485-43.767 33.915-61.582 2.729-.117 1.436 7.01-1.792 12.664-7.496 13.125-19.504 46.877-18.569 61.963 9.747-2.72 22.456-18.665 32.203-21.385-9.828 7.401-20.033 15.258-25.201 26.423-5.507 11.898-4.434 25.661-3.248 38.717l3.954 43.513c.127 1.404.148 3.068-.975 3.921-.788.599-1.871.566-2.858.506l-13.911-.846M33.873 407.625a82.87 82.87 0 0 0 10.402 11.287l-10.402-11.287z"/><path d="M34.28 407.314c5.905.805 9.863 5.355 10.337 11.217l-.685.762c-6.118.125-11.234-5.199-10.466-11.357l.814-.622zm-.345 18.96c5.109.748 10.273 1.023 15.327.817l-15.327-.817z"/><path d="M34.009 425.767c4.789-3.546 10.8-3.053 15.232.812a2489.97 2489.97 0 0 0 .042 1.024c-4.293 4.361-11.672 4.122-15.422-.822 0-.001.148-1.014.148-1.014z"/><use href="#T"/><path d="M40.801 396.777c5.406 2.508 7.849 8.022 6.576 13.764l-.879.526c-5.884-1.682-9.205-8.276-6.658-13.935l.961-.355zm-26.326-21.316a82.83 82.83 0 0 0 11.857 9.747l-11.857-9.747z"/><path d="M14.836 375.097c5.959-.016 10.507 3.946 11.784 9.686l-.573.849c-6.043.967-11.843-3.602-11.931-9.807l.72-.728zm35.257-.071c1.788 4.844 4.017 9.51 6.617 13.849l-6.617-13.849z"/><path d="M50.573 374.849c5.406 2.507 7.849 8.022 6.576 13.763l-.879.527c-5.884-1.682-9.205-8.277-6.658-13.936l.961-.354zm-37.866 22.403c3.668 3.634 7.661 6.92 11.852 9.753l-11.852-9.753z"/><path d="M13.067 396.888c5.959-.013 10.505 3.952 11.779 9.693l-.574.848c-6.043.964-11.841-3.608-11.926-9.813l.721-.728zm19.885-20.03c2.976 4.22 6.332 8.154 9.962 11.677l-9.962-11.677z"/><path d="M33.37 376.563c5.869 1.03 9.651 5.729 9.9 11.605l-.713.735c-6.119-.109-11.027-5.626-10.024-11.75l.837-.59zm27.686 15.153a82.85 82.85 0 0 0 6.617 13.85l-6.617-13.85z"/><path d="M61.536 391.539c5.406 2.507 7.849 8.022 6.576 13.763l-.879.527c-5.884-1.682-9.205-8.277-6.658-13.935 0-.001.961-.355.961-.355zm85.102-45.68c-3.619 3.683-6.889 7.689-9.706 11.891l9.706-11.891z"/><path d="M147.004 346.218c.036 5.959-3.91 10.521-9.646 11.817l-.851-.57c-.987-6.039 3.562-11.855 9.766-11.965l.731.718zm13.68-4.668c-3.619 3.683-6.889 7.689-9.705 11.891l9.705-11.891z"/><path d="M161.05 341.909c.037 5.959-3.91 10.52-9.646 11.817l-.851-.57c-.987-6.039 3.562-11.855 9.766-11.965l.731.718zm-16.618-12.187a82.88 82.88 0 0 0-8.621 12.7l8.621-12.7z"/><path d="M144.827 330.048c.562 5.932-2.967 10.824-8.567 12.621l-.898-.494c-1.515-5.929 2.504-12.122 8.674-12.778l.791.651z"/><use href="#U"/><path d="M53.273 402.885c4.414 4.003 5.105 9.994 2.181 15.097l-.995.241c-5.116-3.357-6.324-10.642-2.209-15.286l1.023-.052z"/><use href="#V"/><path d="M56.521 362.224c5.956-.196 10.621 3.627 12.071 9.326l-.547.866c-6.011 1.149-11.946-3.243-12.222-9.442 0-.001.698-.75.698-.75zm-31.351-3.245a82.86 82.86 0 0 0 12.146 9.384l-12.146-9.384z"/><path d="M25.519 358.604c5.956-.196 10.621 3.626 12.071 9.326l-.547.866c-6.011 1.148-11.946-3.243-12.222-9.443l.698-.749zm12.038-14.464a82.82 82.82 0 0 0 12.146 9.384l-12.146-9.384z"/><path d="M37.906 343.765c5.956-.196 10.621 3.627 12.071 9.326l-.547.866c-6.011 1.149-11.946-3.243-12.222-9.442l.698-.75zm63.274-9.438a82.87 82.87 0 0 0-6.672 13.823l6.672-13.823z"/><path d="M101.619 334.591c1.423 5.787-1.354 11.141-6.63 13.737l-.96-.356c-2.366-5.644.705-12.359 6.714-13.909l.877.528zm79.359 33.71c-2.663 4.424-4.911 9.081-6.672 13.823l6.672-13.823z"/><path d="M181.416 368.565c1.423 5.787-1.353 11.142-6.63 13.738l-.96-.357c-2.366-5.644.704-12.358 6.713-13.909l.877.528zm-91.297-50.044a82.87 82.87 0 0 0-6.672 13.824l6.672-13.824z"/><path d="M90.557 318.786c1.423 5.787-1.354 11.141-6.631 13.737l-.96-.357c-2.366-5.643.705-12.358 6.713-13.909l.878.529zm7.943 37.71a82.82 82.82 0 0 0-5.205 14.439l5.205-14.439z"/><path d="M98.964 356.713c2.014 5.609-.193 11.222-5.173 14.35l-.992-.255c-2.937-5.369-.578-12.365 5.237-14.529l.927.434zm6.564 27.722a82.79 82.79 0 0 0-5.205 14.439l5.205-14.439z"/><path d="M105.992 384.652c2.014 5.609-.193 11.222-5.173 14.35l-.992-.255c-2.937-5.369-.578-12.365 5.237-14.529l.928.434zm4.882-43.974c-2.19 4.676-3.944 9.541-5.205 14.44l5.205-14.44z"/><path d="M111.338 340.895c2.014 5.609-.193 11.222-5.173 14.35l-.992-.255c-2.937-5.368-.578-12.365 5.238-14.529l.927.434zm3.284 19.19a82.8 82.8 0 0 0-5.205 14.44l5.205-14.44z"/><path d="M115.086 360.303c2.014 5.608-.194 11.221-5.173 14.35 0-.001-.992-.256-.992-.256-2.938-5.368-.578-12.365 5.237-14.529l.928.435zm-28.838-11.458c.265 5.157 1.004 10.275 2.195 15.191l-2.195-15.191z"/><path d="M86.759 348.819c4.414 4.003 5.105 9.994 2.181 15.097l-.995.241c-5.117-3.357-6.324-10.641-2.209-15.286l1.023-.052zm-27.825-12.2c1.619 4.903 3.685 9.644 6.132 14.071l-6.132-14.071z"/><path d="M59.42 336.458c5.316 2.694 7.566 8.29 6.094 13.984l-.896.496c-5.822-1.886-8.912-8.592-6.17-14.158 0-.001.972-.322.972-.322zm9.174 46.603c3.729 3.572 7.776 6.791 12.014 9.553l-12.014-9.553z"/><path d="M68.948 382.691c5.958-.113 10.57 3.775 11.939 9.494l-.559.858c-6.026 1.065-11.9-3.41-12.088-9.612l.709-.74zM72.5 338.98a82.84 82.84 0 0 0 7.722 13.265L72.5 338.98z"/><path d="M72.964 338.764c5.592 2.06 8.476 7.357 7.674 13.183 0 0-.833.596-.833.596-6.001-1.198-9.848-7.5-7.77-13.347 0 0 .929-.432.929-.432z"/><use href="#W"/><path d="M73.777 357.672c5.592 2.06 8.476 7.357 7.674 13.183l-.833.596c-6.001-1.197-9.848-7.5-7.77-13.347l.929-.432zm47.217-17.12c2.176 4.683 4.778 9.152 7.722 13.265l-7.722-13.265z"/><path d="M121.459 340.336c5.592 2.06 8.475 7.357 7.674 13.183l-.833.596c-6.001-1.197-9.848-7.5-7.77-13.347l.929-.432zm29.109 19.674a82.83 82.83 0 0 0-13.368 7.541l13.368-7.541z"/><path d="M150.778 360.477c-2.135 5.563-7.471 8.375-13.286 7.495l-.585-.841c1.279-5.985 7.633-9.745 13.452-7.589l.419.935zm18.962 30.385c-4.2 3.003-8.113 6.384-11.612 10.037l11.612-10.037z"/><path d="M170.038 391.279c-.992 5.876-5.667 9.687-11.54 9.974-.001 0-.74-.708-.74-.708.07-6.119 5.554-11.063 11.684-10.1.001 0 .596.834.596.834zm-8.79 19.132c-5.15-.378-10.32-.28-15.346.291l15.346-.291z"/><path d="M161.211 410.922c-4.521 3.883-10.552 3.824-15.252.289l-.115-1.018c3.966-4.66 11.344-4.953 15.441-.293l-.074 1.022zm-7.016 14.053c-5.15-.377-10.32-.279-15.347.292l15.347-.292z"/><path d="M154.157 425.486c-4.52 3.883-10.551 3.825-15.251.289l-.115-1.017c3.966-4.66 11.344-4.954 15.441-.294l-.075 1.022zm-1.398-33.894c-3.002 4.201-5.61 8.667-7.739 13.256l7.739-13.256z"/><path d="M153.176 391.89c.963 5.881-2.226 11-7.691 13.173l-.929-.431c-1.915-5.812 1.675-12.265 7.787-13.338l.833.596zm-21.71 3.865c-.5 5.14-.526 10.311-.076 15.349l.076-15.349z"/><path d="M131.976 395.805c3.774 4.612 3.571 10.64-.076 15.254l-1.02.091c-4.564-4.077-4.681-11.459.076-15.444l1.02.099zm33.308-21.701c-3.002 4.201-5.609 8.667-7.738 13.256l7.738-13.256z"/><path d="M165.701 374.402c.963 5.881-2.226 11-7.691 13.173l-.929-.431c-1.915-5.812 1.675-12.264 7.787-13.337l.833.595zm-23.06-.544c-.191 5.161.093 10.324.845 15.326l-.845-15.326z"/><path d="M143.153 373.877c4.043 4.378 4.203 10.407.839 15.231l-1.013.152c-4.8-3.796-5.359-11.158-.85-15.421l1.024.038zm-72.546 35.909c.265 5.157 1.004 10.275 2.195 15.192l-2.195-15.192z"/><path d="M71.118 409.76c4.414 4.003 5.105 9.995 2.181 15.097 0 0-.996.241-.996.241-5.116-3.357-6.324-10.641-2.208-15.285 0 0 1.023-.053 1.023-.053z"/></g><path d="M548.982 455.962c1.33 19.388.224 36.019 1.554 55.407-35.944 1.095-65.144-.495-101.089.6-.598-22.176-.598-37.759.971-54.893 0 0 98.447-2.807 98.564-1.114z" class="F"/><path d="M481.481 497.413l-.56-18.589 17.575-.965c0 8.948 0 13.743-.953 19.276 0 0-16.045.82-16.062.278z" class="C"/><path d="M501.008 344.412l-.98-3.683-.954 3.689c-11.056 42.735-31.404 81.985-60.262 115.975l1.525 1.295c28.239-33.262 48.389-71.534 59.717-113.166 11.578 41.639 31.258 81.136 57.704 115.772l1.589-1.214c-27.048-35.425-46.977-75.963-58.339-118.668zm-43.273 105.647c-1.23 5.323-3.689 10.379-7.144 14.684l1.56 1.252c3.641-4.538 6.234-9.866 7.533-15.485l-1.949-.451zm11.238 16.64l3.539-16.623 1.956.417-3.539 16.622-1.956-.416zm16.85-15.174c.607 5.435.015 10.995-1.724 16.194l1.896.635c1.832-5.475 2.455-11.327 1.815-17.051l-1.987.222zm8.681 16.337l1.521-14.295 1.989.212-1.521 14.295-1.989-.212zm10.458-11.772l1.152 7.169 1.152 7.169 1.975-.317-1.152-7.169-1.152-7.169-1.975.317zm12.964 13.923c-2.247-4.241-3.041-9.191-2.227-13.899l1.97.34a19.93 19.93 0 0 0 2.024 12.623l-1.767.936zm5.713-17.565c-.471 4.938.589 9.998 3.006 14.361l1.749-.97a22.91 22.91 0 0 1-2.764-13.2l-1.991-.191zm14.664 15.632c-3.01-3.793-4.927-8.397-5.477-13.163l1.987-.229c.506 4.391 2.276 8.645 5.057 12.149l-1.567 1.243zm4.361-11.188l7.836 13.665 1.735-.995-7.836-13.665-1.735.995z" class="H I"/><g clip-path="url(#P)"><path d="M458.005 534.322l4.447 64.528-120.198 3.645c2.826-10.692 4.731-21.422 5.711-32.164.712-7.811.175-34.773.175-34.773s109.736-3.114 109.865-1.236z" class="F"/><path d="M436.675 557.311l.725 20.62-19.586 1.164c.461-3.416.771-6.845.931-10.277.116-2.496.029-11.112.029-11.112s17.88-.995 17.901-.395z" class="C"/><path d="M404.688 400.909l.981 3.783a402.82 402.82 0 0 0 17.524 52.396l.34-.096-.12-.419 1.924-.546c.936 3.301 2.113 6.535 3.518 9.666l-1.666.748c12.198 27.59 27.474 53.831 45.504 78.043l-1.605 1.194c-17.683-23.747-32.73-49.435-44.839-76.431l-.016.021-.687-1.533a72.76 72.76 0 0 1-1.03-2.406c-7.976-18.294-14.607-37.168-19.803-56.43-4.406 16.705-9.988 32.953-16.713 48.666l1.197 1.066-3.263 3.663c-12.826 28.777-29.528 55.707-49.899 80.309l-1.54-1.276c18.859-22.777 34.555-47.559 46.923-73.963l-.985 1.107-.168-.15.05.415-.508.062-2.628.319 1.76-1.977 5.295-5.943c8.064-18.137 14.581-37.01 19.497-56.499l.957-3.789zm-54.073 145.059a44 44 0 0 0 8.239-17.365l1.951.44a46 46 0 0 1-8.615 18.157l-1.575-1.232zm21.358-13.765l-4.063 19.572 1.958.407 4.063-19.572-1.958-.407zm11.945 19.872a45.93 45.93 0 0 0 1.988-19.153l1.988-.217a47.93 47.93 0 0 1-2.075 19.991l-1.901-.621zm16.571-13.791l-1.747 16.832 1.989.206 1.747-16.832-1.989-.206zm11.827 10.753l-1.322-8.441 1.975-.309 1.323 8.441 1.323 8.441-1.976.31-1.323-8.442zm10.509-12.838c-.926 5.498-.022 11.282 2.539 16.239l1.777-.918a24.18 24.18 0 0 1-2.343-14.989l-1.973-.332zm14.883 16.857c-2.759-5.103-3.967-11.022-3.429-16.794l1.991.186c-.501 5.378.627 10.901 3.197 15.657l-1.759.951zm8.04-17.938a30.97 30.97 0 0 0 6.251 15.403l1.582-1.224c-3.213-4.151-5.259-9.193-5.845-14.402l-1.988.223zm17.019 17.955l-8.998-16.09 1.745-.976 8.999 16.09-1.746.976zm-71.374-95.307l-7.035 13.891 1.784.904 7.035-13.891-1.784-.904zm30.887 12.722a47.63 47.63 0 0 1-3.466-12.581l1.983-.261c.546 4.143 1.667 8.211 3.32 12.051l-1.837.791zm-7.505-12.306a35.63 35.63 0 0 0 .984 13.611l1.93-.524c-1.133-4.169-1.451-8.558-.929-12.846l-1.985-.241zm-4.82 6.683l.911-6.004 1.977.3-.911 6.004-.911 6.004-1.977-.3.911-6.004zm-2.945-6.027c-1.4 3.569-2.553 7.234-3.448 10.96l1.945.467c.874-3.637 1.999-7.214 3.365-10.697l-1.862-.73zm-7.68 10.844c.766-3.51 1.779-6.966 3.028-10.336l1.876.695a74.89 74.89 0 0 0-2.95 10.068l-1.954-.427zm-2.323-9.667c-.173 1.446-.431 2.873-.807 4.261-.451 1.661-1.073 3.275-1.855 4.809l1.782.909c.844-1.657 1.517-3.401 2.003-5.194.406-1.499.681-3.024.863-4.548l-1.986-.237zm-8.215 8.216a69.48 69.48 0 0 0 5.466-8.942l1.781.912c-1.639 3.201-3.521 6.279-5.624 9.199l-1.623-1.169z" class="H I"/></g><defs><clipPath id="A"><path transform="matrix(-.90363 -.428315 -.428315 .90363 575.738 142.121)" d="M0 0h119.277v182.818H0z" class="B"/></clipPath><clipPath id="B"><path transform="translate(282.74 .841)" d="M0 0h166.206v263.636H0z" class="B"/></clipPath><clipPath id="C"><path transform="matrix(0 1 -1 0 174.561 541.487)" d="M0 0h87.307v87.307H0z" class="B"/></clipPath><clipPath id="D"><path transform="matrix(-1 0 0 -1 177.999 366.316)" d="M0 0h88.277v87.307H0z" class="B"/></clipPath><clipPath id="E"><path transform="matrix(-1 0 0 -1 177.999 190.731)" d="M0 0h88.277v87.307H0z" class="B"/></clipPath><clipPath id="F"><path transform="matrix(0 1 -1 0 353.426 454.563)" d="M0 0h87.307v88.277H0z" class="B"/></clipPath><clipPath id="G"><path transform="matrix(0 1 -1 0 177.999 190.731)" d="M0 0h88.277v88.277H0z" class="B"/></clipPath><clipPath id="H"><path transform="matrix(0 1 -1 0 265.306 454.593)" d="M0 0h87.307v87.307H0z" class="B"/></clipPath><clipPath id="I"><path transform="matrix(0 1 -1 0 265.306 367.286)" d="M0 0h87.307v87.307H0z" class="B"/></clipPath><clipPath id="J"><path transform="matrix(0 1 -1 0 353.426 367.639)" d="M0 0h87.307v88.277H0z" class="B"/></clipPath><clipPath id="K"><path transform="matrix(0 1 -1 0 262.681 541.487)" d="M0 0h87.307v88.277H0z" class="B"/></clipPath><clipPath id="L"><path transform="matrix(0 1 -1 0 265.306 191.702)" d="M0 0h175.584v87.307H0z" class="B"/></clipPath><clipPath id="M"><path transform="matrix(0 1 -1 0 353.426 279.76)" d="M0 0h87.307v88.277H0z" class="B"/></clipPath><clipPath id="N"><path transform="translate(209.19 618.858)" d="M0 0h134.551v100.198H0z" class="B"/></clipPath><clipPath id="O"><path transform="matrix(.999077 -.042961 .042961 .999077 9.07861 321.723)" d="M0 0h170.418v203.58H0z" class="B"/></clipPath><clipPath id="P"><path transform="translate(334.322 399.161)" d="M0 0h138.505v203.459H0z" class="B"/></clipPath><path id="Q" d="M161.649 622.857c-3.852 0-6.975-3.123-6.975-6.975s3.123-6.976 6.975-6.976 6.976 3.123 6.976 6.976-3.123 6.975-6.976 6.975z"/><path id="R" d="M141.155 561.374c-3.852 0-6.975-3.123-6.975-6.975s3.123-6.976 6.975-6.976 6.975 3.123 6.975 6.976-3.123 6.975-6.975 6.975z"/><path id="S" d="M137.832 190.731h7.945v-87.307h-7.945v87.307z"/><path id="T" d="M40.32 396.955c1.788 4.844 4.017 9.51 6.617 13.849l-6.617-13.849z"/><path id="U" d="M52.762 402.911c.265 5.157 1.004 10.275 2.195 15.191l-2.195-15.191z"/><path id="V" d="M56.172 362.599c3.778 3.519 7.87 6.681 12.146 9.384l-12.146-9.384z"/><path id="W" d="M73.313 357.888c2.176 4.683 4.778 9.152 7.722 13.265l-7.722-13.265z"/></defs></svg>