<svg xmlns="http://www.w3.org/2000/svg" width="482" height="393" fill="none" xmlns:v="https://vecta.io/nano"><style><![CDATA[.B{fill:#fff}.C{fill:#f6cc47}.D{fill:#1c3b87}.E{fill:#e83323}.F{fill:#111ef7}.G{fill:#88d84a}.H{fill:#fdf5da}]]></style><g clip-path="url(#A)"><path d="M201.161 34.481c-1.873 3.207-2.482 6.986-1.915 10.635.356 2.285 1.099 4.513 2.1 6.598.705 1.468 1.239 2.998 2.122 4.38.733 1.15 1.637 2.18 2.675 3.062 5.699 2.748 12.959 2.268 18.6-.393 3.73-1.76 6.993-4.504 8.917-8.162 2.124-4.037 2.146-8.674.951-12.991-1.011-3.648-3.049-7.071-6.197-9.299-2.815-1.992-6.193-2.983-9.607-3.062-6.884-.159-14.122 3.196-17.646 9.232z" class="F"/><g class="C"><path d="M262.664 90.764c-10.059-.465-19.946-2.75-29.125-6.855-8.774-3.924-16.739-9.473-23.76-15.968-7.198-6.659-13.422-14.311-18.894-22.404-5.645-8.35-10.498-17.208-14.809-26.296-1.134-2.39-2.189-4.785-3.076-7.273v78.987h91.821c.001-.04-.001-.08-.001-.121l-2.156-.07zm-74.04-89.738c10.256 3.42 19.927 8.1 28.92 14.068 9.646 6.402 18.504 14.033 26.152 22.687 7.393 8.366 13.714 17.729 18.034 28.012a72.04 72.04 0 0 1 3.687 11.221V0h-80.059l3.266 1.026z"/></g></g><g clip-path="url(#B)"><g class="D"><path d="M1.57 146c-.146 0-.27-.107-.292-.253l-.275-1.971c-1.362-10.575-1.041-21.727-.731-32.511l.233-9.699c.233-16.158 1.212-32.49 2.909-48.543.071-.671.185-1.361.718-1.793.452-.367 1.055-.397 1.495-.419a392.13 392.13 0 0 1 37.359-.094c1.334.06 2.609.184 3.548 1.016.803.712 1.134 1.767 1.404 2.786 1.8 6.788 2.413 13.882 3.006 20.743 1.801 20.847 3.665 42.405 3.839 63.688.01 1.252-.04 2.453-.741 3.389-.871 1.162-2.427 1.452-3.816 1.633-10.047 1.307-20.143 1.418-29.907 1.525-6.133.067-12.475.136-18.731.502zm.02-2.3l.233 1.69c6.183-.353 12.438-.422 18.489-.488 9.747-.107 19.826-.217 29.838-1.52 1.328-.173 2.686-.423 3.419-1.401.59-.787.631-1.88.622-3.026-.175-21.261-2.037-42.806-3.837-63.642-.59-6.836-1.202-13.904-2.988-20.641-.247-.931-.545-1.891-1.224-2.493-.794-.705-1.959-.813-3.183-.868-12.376-.561-24.927-.529-37.303.094-.466.023-.874.061-1.154.288-.356.289-.443.847-.501 1.393a537 537 0 0 0-2.905 48.489l-.233 9.707c-.309 10.761-.629 21.889.727 32.418z"/><use href="#O"/><path d="M16.017 65.415c.116.41.795.261 1.218.239l3.276-.165.763-.038c4.103-10.346-7.353-7.403-5.258-.036zm11.533 2.841c.116.41.795.261 1.219.239l3.276-.165.763-.038c4.103-10.346-7.353-7.403-5.258-.036z"/><use href="#P"/><path d="M6.719 78.297c.117.41.795.261 1.219.239l3.276-.165.763-.038c4.103-10.346-7.353-7.403-5.258-.036zm8.758.592c.117.41.795.261 1.219.239l3.276-.165.763-.038c4.103-10.346-7.353-7.403-5.258-.036zm11.42 0c.117.41.795.261 1.219.239l3.276-.165.763-.038c4.103-10.346-7.353-7.403-5.258-.036zm10.49-.592c.117.41.795.261 1.218.239l3.276-.165.763-.038c4.103-10.346-7.353-7.403-5.258-.036zM6.719 88.339c.117.41.795.261 1.219.239l3.276-.165.763-.038c4.103-10.346-7.353-7.403-5.258-.036zm7.286 1.579c.117.41.795.261 1.219.239l3.276-.165.763-.038c4.103-10.346-7.353-7.403-5.258-.036zm12.892 0c.117.41.795.261 1.219.239l3.276-.165.763-.038c4.103-10.346-7.353-7.403-5.258-.036zm11.57-2.467c.117.41.795.261 1.219.239l3.276-.165.763-.038c4.103-10.346-7.353-7.403-5.258-.036zM7.026 115.057c.116.41.795.261 1.218.24l3.276-.165.763-.038c4.103-10.346-7.353-7.403-5.258-.037zm10.184-.69c.117.41.795.26 1.218.239l3.276-.165.763-.038c4.103-10.346-7.353-7.403-5.258-.036zM6.327 101.143c.116.41.795.261 1.219.24l3.276-.165.763-.038c4.103-10.346-7.353-7.403-5.258-.037zm8.266.713c.117.41.795.261 1.219.24l3.276-.165.763-.039c4.103-10.346-7.353-7.402-5.258-.036z"/><use href="#Q"/><path d="M36.972 113.303c.117.41.795.261 1.219.24l3.276-.165.763-.038c4.103-10.347-7.353-7.403-5.258-.037z"/><use href="#R"/><path d="M17.4 127.195c.117.41.795.261 1.219.24l3.276-.165.763-.038c4.103-10.346-7.353-7.403-5.258-.037zm13.728-1.776c.116.41.795.261 1.219.239l3.276-.164.763-.039c4.103-10.346-7.353-7.403-5.258-.036zm8.267.713c.116.41.795.261 1.218.239l3.276-.164.763-.039c4.103-10.346-7.353-7.403-5.258-.036zM27.55 101.856c.116.41.795.261 1.219.24l3.276-.165.763-.039c4.103-10.346-7.353-7.402-5.258-.036zm9.837 0c.117.41.795.261 1.218.24l3.276-.165.763-.039c4.103-10.346-7.353-7.402-5.258-.036z"/></g><path d="M50.568 128.057c-2.243-17.415-.881-35.994-.629-53.456.297-20.544 1.526-41.074 3.685-61.506.078-.737.198-1.554.772-2.02.459-.372 1.09-.418 1.679-.448 15.762-.795 31.561-.834 47.326-.12 1.505.068 3.136.193 4.266 1.194.945.838 1.341 2.122 1.666 3.346 2.267 8.55 3.038 17.417 3.799 26.232 2.322 26.859 4.644 53.751 4.866 80.711.011 1.412-.018 2.938-.864 4.066-1.026 1.367-2.896 1.703-4.586 1.923-20.715 2.695-41.073 1.365-61.634 2.568l-.347-2.491z" class="G"/><g class="D"><use href="#S"/><path d="M69.23 28.765c.148.519 1.008.33 1.545.303l4.153-.209.967-.049c5.201-13.116-9.322-9.385-6.665-.046zm14.621 3.601c.148.519 1.008.33 1.545.303l4.153-.209.967-.049c5.201-13.116-9.322-9.385-6.665-.046zm12.471 0c.148.519 1.008.33 1.545.303l4.153-.209.967-.049c5.201-13.116-9.321-9.385-6.665-.046z"/><use href="#T"/><use href="#U"/><path d="M83.023 45.847c.148.519 1.008.331 1.545.303l4.153-.209.967-.049c5.201-13.116-9.322-9.385-6.666-.046z"/><use href="#V"/><use href="#W"/><path d="M66.678 59.828c.148.519 1.008.331 1.545.303l4.153-.209.967-.049c5.201-13.116-9.322-9.385-6.665-.046zm16.345 0c.148.519 1.008.331 1.545.303l4.153-.209.967-.049c5.201-13.116-9.322-9.385-6.666-.046zM97.69 56.7c.148.52 1.008.331 1.545.304l4.154-.209.967-.049c5.201-13.116-9.322-9.385-6.666-.046zM57.832 91.698c.148.52 1.008.331 1.545.304l4.153-.209.967-.049c5.201-13.116-9.322-9.385-6.666-.046zm12.91-.875c.148.519 1.008.331 1.545.303l4.153-.209.967-.049c5.201-13.116-9.322-9.385-6.666-.046zM56.945 74.059c.148.519 1.008.331 1.545.303l4.153-.209.967-.049c5.201-13.116-9.322-9.385-6.666-.046zm10.48.903c.148.519 1.008.331 1.545.304l4.153-.209.967-.049c5.201-13.116-9.322-9.385-6.666-.046zm17.89 13.609c.148.519 1.008.331 1.545.303l4.153-.209.967-.049c5.201-13.116-9.322-9.385-6.666-.046zm10.48.903c.148.519 1.008.331 1.545.303l4.154-.209.967-.049c5.201-13.116-9.322-9.385-6.666-.046zm-37.723 18.487c.148.52 1.008.331 1.545.304l4.154-.209.967-.049c5.201-13.116-9.322-9.385-6.665-.046zm12.911-.875c.148.519 1.008.33 1.545.303l4.153-.209.967-.049c5.201-13.115-9.322-9.385-6.665-.045zm17.404-2.252c.148.519 1.008.33 1.545.303l4.153-.209.967-.048c5.201-13.116-9.322-9.385-6.665-.046zm10.48.903c.148.52 1.008.331 1.545.304l4.153-.209.967-.049c5.201-13.116-9.322-9.385-6.665-.046zM83.851 74.962c.148.519 1.008.331 1.545.304l4.153-.209.967-.049c5.201-13.116-9.322-9.385-6.665-.046zm12.471 0c.148.519 1.008.331 1.545.304l4.153-.209.967-.049c5.201-13.116-9.321-9.385-6.665-.046z"/></g></g><path d="M356.165 229.512v45.701h45.701 45.7l-91.401-91.401v45.7z" class="B"/><path d="M179.79 114.629c4.091 8.333 9.338 16.074 15.343 23.13 6.173 7.254 13.137 13.842 20.659 19.669 7.358 5.7 15.273 10.701 23.602 14.843 7.822 3.89 16.044 7.002 24.55 9 .112.026.207.068.294.115V91h-91.401v3.803c1.467 6.867 3.866 13.537 6.953 19.826z" class="C"/><path d="M447.566 229.512v-45.7h-45.701-45.7l91.401 91.401v-45.701z" class="E"/><g clip-path="url(#C)" class="C"><path d="M79.929 275.213h46.208c25.52 0 46.209 20.461 46.209 45.701s-20.689 45.701-46.209 45.701H79.929v-91.402z"/></g><g clip-path="url(#D)"><path d="M79.929 182.796h92.417V91.394H79.929v91.402z" class="B"/><g class="F"><use href="#X"/><use href="#Y"/><path d="M163.566 182.796h8.78V91.394h-8.78v91.402zm-66.54 0h8.317V91.394h-8.317v91.402zm-17.097 0h8.779V91.394h-8.779v91.402zm33.732 0h8.318V91.394h-8.318v91.402z"/></g></g><g clip-path="url(#E)"><g class="G"><path d="M425.374 137.701c0 12.653-10.371 22.911-23.165 22.911 12.752 0 23.092 10.193 23.159 22.789h.013c.067-12.555 10.341-22.716 23.036-22.783v-.012c-12.737-.067-23.043-10.293-23.043-22.905z"/><path d="M402.208 114.789c12.795 0 23.166 10.258 23.166 22.912 0-12.613 10.306-22.839 23.043-22.906v-.012c-12.695-.066-22.969-10.227-23.036-22.783h-.013c-.067 12.597-10.407 22.789-23.16 22.789zm0 45.823c-12.794 0-23.165-10.258-23.165-22.911 0 12.612-10.306 22.838-23.043 22.905v.012c12.695.067 22.969 10.228 23.036 22.783h.013c.067-12.596 10.407-22.789 23.159-22.789z"/><path d="M356 114.783v.012c12.737.067 23.043 10.293 23.043 22.906 0-12.654 10.371-22.912 23.165-22.912-12.752 0-23.092-10.192-23.159-22.789h-.013c-.067 12.556-10.341 22.717-23.036 22.783z"/></g><g class="B"><path d="M356 160.618v22.783h23.036c-.067-12.555-10.341-22.717-23.036-22.783z"/><path d="M379.042 137.701c0-12.613-10.305-22.839-23.042-22.906v45.811c12.737-.067 23.042-10.293 23.042-22.905z"/><path d="M379.036 92H356v22.783c12.695-.066 22.969-10.227 23.036-22.783zm23.173 68.612c-12.753 0-23.093 10.193-23.16 22.789h46.319c-.067-12.596-10.407-22.789-23.159-22.789z"/><path d="M379.121 139.59c1.056 12.611 12.248 21.988 24.998 20.944s22.232-12.113 21.177-24.723-12.248-21.987-24.998-20.944-22.232 12.113-21.177 24.723z"/><path d="M402.209 114.789c12.752 0 23.092-10.192 23.159-22.789h-46.319c.067 12.597 10.407 22.789 23.16 22.789zm23.172 68.612h23.036v-22.783c-12.695.066-22.969 10.228-23.036 22.783z"/><path d="M425.374 137.701c0 12.612 10.306 22.838 23.043 22.905v-45.811c-12.737.067-23.043 10.293-23.043 22.906z"/><path d="M448.417 114.783V92h-23.036c.067 12.556 10.341 22.717 23.036 22.783z"/></g></g><g clip-path="url(#F)"><path d="M172.346 275.213v-92.417H79.929v92.417h92.417z" class="G"/><path d="M172.346 229.005v-.001c0-25.52-20.689-46.208-46.209-46.208h0c-25.52 0-46.208 20.688-46.208 46.208v.001c0 25.52 20.688 46.208 46.208 46.208h0c25.52 0 46.209-20.688 46.209-46.208z" class="B"/><path d="M147.028 229.004c0-11.537-9.353-20.89-20.891-20.89s-20.89 9.353-20.89 20.89 9.353 20.891 20.89 20.891 20.891-9.353 20.891-20.891z" class="E"/></g><g clip-path="url(#G)" class="C"><path d="M333.125 359.059c-11.18-5.379-21.399-12.661-30.611-20.886-9.455-8.441-17.92-17.995-25.176-28.347-5.276-7.527-9.948-15.544-13.591-23.984v80.773h92.393c-7.987-1.345-15.733-4.052-23.015-7.556zm16.402-64.174a44.49 44.49 0 0 0 6.638 5.158v-24.83h-20.538c3.625 7.308 8.061 14.16 13.9 19.672zm-39.571 18.642c7.537 7.461 16.824 14.762 25.436 21.003 6.313 4.576 13.25 8.97 20.773 11.445v-19.897c-4.88-2.227-9.53-4.93-13.845-8.127-6.365-4.716-11.94-10.355-16.81-16.562-4.841-6.169-9.015-12.807-12.872-19.612-1.231-2.173-2.682-4.01-2.682-6.564h-25.608c0 13.942 16.777 29.572 25.608 38.314z"/></g><g clip-path="url(#H)"><path d="M263.356 275.721v91.909h-45.505-45.505v-91.909-91.909h45.505 45.505v91.909z" class="H"/><path d="M263.356 275.721v91.909h-45.505l-45.505-91.909 45.505-91.909h45.505v91.909z" class="E"/><path d="M263.748 275.721v91.909h-20.407l-45.505-91.909 45.505-91.909h20.407v91.909z" class="H"/><path d="M263.748 275.721v91.909h-.297l-46.05-91.909 46.05-91.909h.297v91.909z" class="E"/></g><g clip-path="url(#I)" class="C"><path d="M356.164 184.812h-20.311v90h20.311v-90zm-46.716 0h-25.389v90h25.389v-90z"/></g><g clip-path="url(#J)" class="D"><path d="M418.088 337.313c.305-9.354.078-19.267-.816-28.583-.361-3.768-.831-7.569-2.158-11.114-3.461-9.243-12.139-15.399-17.596-23.621 6.774 6.374 13.936 12.336 21.432 17.841a.94.94 0 0 0 1.485-.828 136 136 0 0 1 3.416-40.523c3.533-1.648 2.461 17.937 2.843 28.09 10.569-10.071 12.89-23.096 24.941-31.333 1.542.196.132 4.075-2.222 6.94-5.465 6.653-15.443 24.457-16.367 33.02 5.729-.592 14.391-8.328 20.12-8.921-6.224 3.214-12.704 6.648-16.676 12.423-4.232 6.154-4.951 13.986-5.539 21.434l-1.96 24.818c-.063.801-.212 1.738-.924 2.109-.499.26-1.103.138-1.652.009l-7.723-1.809m-27.407-69.639c1.365 2.606 2.966 5.078 4.752 7.338l-4.752-7.338z"/><path d="M391.543 267.491c3.236 1.018 5.02 3.954 4.723 7.292l-.457.362c-3.445-.517-5.804-3.998-4.782-7.383l.516-.271zm-2.014 10.615c2.795.911 5.666 1.561 8.521 1.93l-8.521-1.93z"/><path d="M389.62 277.829c3.027-1.532 6.352-.678 8.468 1.918-.001 0-.075.579-.075.579-2.827 2.037-6.945 1.195-8.574-1.942l.181-.555zm6.307-15.577c.538 2.892 1.34 5.727 2.382 8.414l-2.382-8.414z"/><path d="M396.213 262.198c2.792 1.928 3.634 5.259 2.368 8.362l-.543.211c-3.14-1.509-4.37-5.532-2.398-8.466l.573-.107zM383.491 247.7c1.71 2.392 3.636 4.62 5.716 6.612l-5.716-6.612z"/><path d="M383.728 247.53c3.345.563 5.516 3.224 5.681 6.571l-.403.422c-3.483-.037-6.299-3.16-5.752-6.653l.474-.34zm19.787 3.344c.538 2.892 1.341 5.726 2.383 8.413l-2.383-8.413z"/><path d="M403.802 250.82c2.792 1.927 3.633 5.259 2.367 8.361l-.543.212c-3.14-1.51-4.37-5.532-2.398-8.466l.574-.107zm-23.396 8.949a47.13 47.13 0 0 0 5.713 6.615l-5.713-6.615z"/><path d="M380.643 259.599c3.345.565 5.514 3.228 5.678 6.574l-.404.422c-3.483-.039-6.296-3.163-5.748-6.656l.474-.34zm13.079-9.341c1.264 2.655 2.77 5.187 4.468 7.514l-4.468-7.514z"/><path d="M393.985 250.132c3.194 1.142 4.865 4.144 4.441 7.468l-.471.344c-3.422-.648-5.646-4.217-4.496-7.561l.526-.251zm14.078 11.168c.539 2.892 1.341 5.727 2.383 8.413l-2.383-8.413z"/><path d="M408.35 261.246c2.792 1.927 3.633 5.259 2.368 8.362l-.544.211c-3.139-1.509-4.369-5.532-2.397-8.466l.573-.107zm52.132-17.489a47.2 47.2 0 0 0-6.588 5.747l6.588-5.747z"/><path d="M460.652 243.994c-.551 3.35-3.203 5.533-6.546 5.711l-.423-.402c.026-3.487 3.137-6.316 6.628-5.783 0 .001.341.474.341.474zm8.123-1.309c-2.384 1.721-4.603 3.657-6.587 5.747l6.587-5.747z"/><path d="M468.946 242.922c-.551 3.35-3.203 5.533-6.546 5.711l-.423-.402c.026-3.487 3.137-6.317 6.628-5.783l.341.474zm-8.153-8.44c-2.223 1.925-4.264 4.049-6.056 6.306l6.056-6.306z"/><path d="M460.984 234.703c-.255 3.386-2.704 5.794-6.019 6.266l-.456-.363c-.281-3.475 2.569-6.568 6.094-6.345l.381.442zm-58.649 32.088c-.347 2.922-.423 5.868-.227 8.743l.227-8.743z"/><path d="M402.624 266.826c2.093 2.672 1.905 6.103-.226 8.688l-.581.04c-2.549-2.377-2.527-6.584.228-8.797l.579.069zm5.495-22.349a47.12 47.12 0 0 0 5.914 6.437l-5.914-6.437z"/><path d="M408.351 244.3c3.36.462 5.611 3.056 5.877 6.397l-.39.433c-3.483.069-6.391-2.968-5.951-6.476l.464-.354zm-17.278-4.831c1.782 2.339 3.774 4.508 5.914 6.436l-5.914-6.436z"/><path d="M391.305 239.292c3.36.461 5.611 3.056 5.877 6.396l-.39.434c-3.483.068-6.391-2.968-5.951-6.476l.464-.354zm8.143-6.969c1.782 2.34 3.774 4.508 5.913 6.437l-5.913-6.437z"/><path d="M399.68 232.146c3.36.462 5.61 3.057 5.876 6.397l-.39.434c-3.482.068-6.391-2.968-5.95-6.477l.464-.354zm36.405.772c-1.919 2.229-3.627 4.629-5.071 7.123l5.071-7.123z"/><path d="M436.306 233.108c.243 3.387-1.829 6.128-5.039 7.079l-.504-.292c-.786-3.397 1.582-6.874 5.102-7.168l.441.381zm41.286 26.549c-1.918 2.229-3.627 4.629-5.07 7.124l5.07-7.124z"/><path d="M477.813 259.848c.243 3.386-1.829 6.127-5.039 7.079l-.504-.293c-.786-3.396 1.582-6.873 5.102-7.167l.441.381zm-46.416-36.869c-1.919 2.229-3.628 4.629-5.071 7.123l5.071-7.123z"/><path d="M431.617 223.169c.243 3.387-1.829 6.128-5.039 7.08l-.504-.293c-.786-3.397 1.582-6.873 5.102-7.168l.441.381z"/><use href="#Z"/><path d="M432.692 245.278c.591 3.343-1.186 6.284-4.28 7.563l-.532-.238c-1.133-3.297.863-7 4.333-7.658l.479.333zm1.021 16.2a47.25 47.25 0 0 0-4.307 7.61l4.307-7.61z"/><path d="M433.952 261.644c.592 3.344-1.186 6.285-4.28 7.564l-.532-.239c-1.132-3.297.863-7 4.334-7.658l.478.333zm6.962-24.229c-1.678 2.416-3.129 4.98-4.307 7.611l4.307-7.611z"/><path d="M441.153 237.582c.592 3.343-1.185 6.284-4.28 7.563l-.532-.239c-1.132-3.297.863-7 4.334-7.658 0 .001.478.334.478.334zm0 11.093a47.17 47.17 0 0 0-4.306 7.61l4.306-7.61z"/><path d="M441.393 248.841c.591 3.344-1.186 6.284-4.28 7.564 0-.001-.532-.239-.532-.239-1.133-3.297.862-7 4.333-7.658l.479.333zm-15.08-9.202c-.346 2.921-.423 5.867-.227 8.742l.227-8.742z"/><path d="M426.603 239.673c2.092 2.672 1.904 6.104-.226 8.689l-.582.039c-2.548-2.376-2.526-6.583.229-8.797l.579.069zm-14.44-9.522a47.2 47.2 0 0 0 2.089 8.491l-2.089-8.491z"/><path d="M412.451 230.107c2.724 2.023 3.449 5.382 2.077 8.439l-.551.192c-3.085-1.617-4.175-5.68-2.102-8.544l.576-.087zm.673 27.055c1.749 2.364 3.71 4.56 5.822 6.518l-5.822-6.518z"/><path d="M413.358 256.988c3.353.509 5.567 3.135 5.786 6.478l-.396.429c-3.483.019-6.349-3.058-5.859-6.559l.469-.348zm6.189-24.209c.772 2.838 1.802 5.598 3.059 8.191l-3.059-8.191z"/><path d="M419.829 232.702c2.939 1.693 4.048 4.945 3.039 8.141l-.524.255c-3.252-1.249-4.805-5.158-3.078-8.243l.563-.153z"/><use href="#a"/><path d="M418.469 243.4c2.94 1.693 4.049 4.945 3.04 8.141l-.525.254c-3.252-1.248-4.804-5.157-3.077-8.242l.562-.153zm28.135-5.085c.771 2.839 1.802 5.599 3.059 8.192l-3.059-8.192z"/><path d="M446.885 238.239c2.94 1.693 4.049 4.945 3.04 8.14l-.525.255c-3.252-1.248-4.804-5.157-3.077-8.242l.562-.153zm14.443 13.843c-2.847.734-5.618 1.729-8.225 2.953l8.225-2.953z"/><path d="M461.401 252.364c-1.732 2.92-4.996 3.987-8.174 2.935l-.247-.529c1.292-3.238 5.218-4.74 8.275-2.971l.146.565zm7.721 18.886a47.1 47.1 0 0 0-7.479 4.523l7.479-4.523z"/><path d="M469.249 271.513c-1.121 3.205-4.11 4.897-7.433 4.495 0-.001-.347-.469-.347-.469.627-3.431 4.179-5.681 7.525-4.551l.255.525zm-6.769 9.902c-2.853-.707-5.763-1.148-8.638-1.309l8.638 1.309z"/><path d="M462.41 281.698c-2.909 1.747-6.287 1.136-8.585-1.301.001 0 .033-.583.033-.583 2.673-2.236 6.841-1.693 8.692 1.317 0 .001-.14.567-.14.567zm-5.285 7.22c-2.853-.706-5.763-1.147-8.638-1.309l8.638 1.309z"/><path d="M457.054 289.201c-2.909 1.747-6.287 1.136-8.584-1.301l.033-.582c2.673-2.237 6.84-1.694 8.691 1.317l-.14.566z"/><use href="#b"/><path d="M459.729 270.238c-.024 3.395-2.305 5.965-5.579 6.661l-.48-.332c-.516-3.448 2.117-6.727 5.649-6.744l.41.415zm-12.551.087c-.774 2.839-1.285 5.741-1.516 8.614l1.516-8.614z"/><path d="M447.46 270.402c1.674 2.953.982 6.319-1.507 8.56l-.581-.046c-2.169-2.728-1.526-6.886 1.525-8.667l.563.153zm20.771-8.991c-2.088 2.071-3.98 4.329-5.615 6.702l5.615-6.702z"/><path d="M468.436 261.618c-.024 3.395-2.305 5.964-5.58 6.66l-.48-.331c-.516-3.448 2.118-6.728 5.65-6.744l.41.415zm-12.886-2.519c-.602 2.88-.939 5.807-.997 8.689l.997-8.689z"/><path d="M455.836 259.159c1.848 2.847 1.359 6.248-.992 8.635l-.583-.012c-2.328-2.592-1.935-6.781 1.004-8.742l.571.119zm-44.149 13.206a47.18 47.18 0 0 0-.228 8.743l.228-8.743z"/><path d="M411.976 272.4c2.092 2.672 1.904 6.103-.226 8.688l-.582.04c-2.548-2.376-2.526-6.583.229-8.797l.579.069z"/></g><g clip-path="url(#K)"><g class="D"><path d="M396.817 214.398c-.345-3.725-1.247-7.357-2.192-10.971-.619-2.368-1.779-4.531-2.594-6.824-1.076-3.028-2.388-5.954-3.879-8.794-2.033-3.869-4.457-7.454-7.942-10.202-.477-.376-.933-.781-1.386-1.188-.644-.579-.64-.673-.016-1.206.092-.079.192-.15.288-.224 5.392-4.205 11.202-7.753 17.22-10.975.529-.284 1.146-.446 1.483-1.014h-2.191c-.032.024-.062.054-.097.073-6.134 3.345-12.113 6.932-17.545 11.362-.503.411-.86.279-1.26-.108a55.33 55.33 0 0 0-1.95-1.834 2.39 2.39 0 0 0-2.137-.596c-3.389.626-6.812 1.081-10.133 2.035-3.059.878-5.983 2.08-8.602 3.914-3.378 2.364-6.224 5.322-9.016 8.324-.908.975-1.666 2.097-2.433 3.194a9.18 9.18 0 0 0-1.579 4.051c-.398 2.906-.356 5.834-.196 8.75.042.773-.169 1.113-.794 1.395-1.405.633-2.814 1.26-4.193 1.949-5.264 2.63-10.434 5.438-15.446 8.523-9.683 5.961-19.716 11.28-29.831 16.453-2.094 1.07-4.184 2.178-6.488 2.742l-11.007 2.599c-2.852.614-5.728 1.074-8.537 1.92-3.064.923-6.197 1.621-9.3 2.414-1.42.363-2.842.769-4.096 1.522-4.014 2.41-6.095 5.709-5.215 10.292.265 1.384.596 2.746 1.143 4.054-.2.056-.278.102-.348.092-.2-.028-.398-.076-.595-.121-.916-.209-1.418-.789-1.507-1.74-.109-1.199-.466-2.295-1.231-3.251-.456-.57-.867-1.176-1.284-1.775-.63-.903-1.478-1.498-2.529-1.792-.937-.263-1.883-.493-2.828-.728-2.194-.547-4.334-.35-6.448.428-1.425.524-2.718 1.278-3.943 2.148-2.248 1.598-4.782 2.769-6.87 4.602-1.432 1.257-2.789 2.607-4.266 3.808-3.67 2.984-6.734 6.566-9.978 9.971l-2.763 2.938s-6.494 7.043-7.98 8.051c-1.075.73-2.108 1.506-3.06 2.4-2.042 1.915-4.132 3.778-6.456 5.357-.939.639-1.871 1.29-2.789 1.959-3.749 2.734-7.154 5.856-10.362 9.203-1.685 1.759-3.442 3.438-5.363 4.949-2.04 1.605-4.023 3.284-5.998 4.968-3.522 3.002-7.094 5.942-10.927 8.539s-7.463 5.477-10.959 8.499l-11.071 9.519c-2.617 2.261-5.581 4.053-8.237 6.256-.467.388-.823.337-1.259-.074-.947-.893-1.961-1.709-3.198-2.18-1.625-.62-2.04-.52-3.223.721l-2.363 2.456c-.83.852-1.799 1.523-2.854 2.055-1.494.755-3.122 1.132-4.723 1.575l-2.723 1.071c-.71.556-1.216 1.298-1.785 1.985-1.397 1.683-3.14 2.912-5.108 3.85-2.708 1.292-5.416 2.59-7.958 4.197-.685.433-1.387.854-2.009 1.369-2.419 2.004-5.018 3.709-7.902 4.968v.974c1.435-.206 2.633-.994 3.889-1.623 1.237-.62 2.323-1.486 3.39-2.359 2.402-1.966 5.107-3.435 7.834-4.877.565-.299.89-.197 1.346.26 2.176 2.182 4.44 4.273 6.754 6.309 2.866 2.521 5.513 5.266 8.096 8.07a129.66 129.66 0 0 0 3.793 3.947l9.755 9.692c3.099 3.031 6.513 5.603 10.662 7.067 1.305.46 2.535 1.086 3.549 2.065.349.337.728.657.823 1.174h1.46c-.594-1.583-1.857-2.529-3.238-3.336-.697-.408-1.436-.77-2.196-1.042-3.944-1.412-7.217-3.826-10.16-6.739l-7.511-7.465c-3.461-3.257-6.57-6.849-9.9-10.228-2.483-2.518-5.167-4.807-7.794-7.163a54.57 54.57 0 0 1-2.808-2.698c-.65-.671-.568-.917.273-1.31 2.534-1.185 4.789-2.721 6.445-5.038.66-.923 1.56-1.501 2.682-1.769.945-.226 1.858-.586 2.802-.817 3.307-.807 5.793-2.818 7.934-5.348 1.078-1.274 1.702-1.403 3.104-.518.684.431 1.307.96 1.957 1.445.387.289.533.594.119.995a1.68 1.68 0 0 0-.409.592c-.125.341-.002.642.326.824.293.164.552.085.748-.174.096-.128.148-.289.242-.419.205-.282.468-.317.73-.093.184.157.348.341.498.532 1.706 2.179 3.72 4.072 5.646 6.045a25.67 25.67 0 0 0 2.339 2.129c2.672 2.135 4.999 4.625 7.293 7.148 1.972 2.167 4.261 3.99 6.435 5.937 2.056 1.841 4.165 3.617 6.333 5.324.477.375.914.701.634 1.503-.246.702.214 1.01.982.752.308-.104.608-.329.916-.115.464.322.914.672 1.322 1.06.197.188.047.464-.085.671-1.046 1.643-1.878 3.41-2.977 5.026-2.809 4.131-5.859 8.077-8.992 11.964-.574.713-1.289 1.364-1.498 2.325h1.46c.145-.618.57-1.071.945-1.544 2.647-3.338 5.3-6.666 7.757-10.154 1.642-2.331 3.072-4.774 4.455-7.254.613-1.101.504-1.432-.546-2.232-.193-.148-.38-.304-.578-.445-.404-.289-.395-.542.002-.85.865-.671 1.728-1.344 2.477-2.153l7.045-7.574c.575-.625 1.067-1.327 1.582-2.006l2.034-2.734 8.49-11.281c3.269-4.588 7.004-8.744 11.184-12.488 2.508-2.247 5.032-4.473 7.428-6.84 2.288-2.259 4.834-4.197 7.392-6.133 1.299-.984 2.84-1.528 4.09-2.634 1.199-1.063 2.733-1.697 4.351-2.079 4.219-.997 8.511-1.717 12.591-3.256.226-.086.467-.134.701-.201 4.247-1.221 8.517-2.373 12.676-3.879 2.366-.857 4.61-2.008 6.906-3.033.478-.214.946-.461 1.5-.448 1.296.032 2.593.088 3.888.06 2.952-.064 5.816-.547 8.426-2.027 1.343-.761 2.41-1.784 2.823-3.345.05-.189.082-.405.419-.419l1.142 1.506c.296.397.655.718 1.096.945 1.668.857 3.451 1.211 5.301 1.01 2.349-.254 4.271-1.436 5.981-3.008.358-.33.623-.799 1.204-.981-.062 2.188 1.026 3.816 2.111 5.437.399.596 1.036.874 1.697 1.12 2.506.931 5.098 1.018 7.683.624 4.126-.627 8.22-1.439 12.299-2.342 2.218-.491 3.714-1.699 4.662-3.696l.71-1.549c1.516-3.526 2.339-7.267 3.168-10.98l3.338-14.221c.539-2.381 1.87-4.202 3.787-5.628a57.87 57.87 0 0 1 3.295-2.295l9.762-6.195 16.464-10.396 6.08-3.586c.346-.203.694-.469 1.116-.162 1.177.856 2.641 1.179 3.784 2.138.777.652 1.776.948 2.858.757 2.164-.381 4.351-.499 6.543-.401 1.854.082 3.644-.192 5.375-.83l7.053-2.673c4.733-1.869 9.198-4.269 13.452-7.049 2.041-1.334 4.002-2.843 5.414-4.852 3.439-4.895 4.954-10.371 4.401-16.346zm-220.678 80.433c1.645-1.62 3.446-3.061 5.252-4.494.342-.272.648-.31.939.055l3.937 4.924c.361.452.168.709-.286.926-.839.401-1.659.843-2.499 1.244-1.532.733-2.854 1.765-4.115 2.872-.186-.038-.273-.174-.366-.306-.929-1.324-1.831-2.666-2.895-3.893-.538-.62-.531-.772.033-1.328zm19.911 14.074c.831 1.627.661 2.326-.802 3.445-1.413 1.081-3.004 1.751-5.113 1.683-1.396.222-2.469-.615-3.334-1.952-1.565-2.42-3.086-4.854-4.14-7.555-.338-.866-.789-1.689-1.211-2.52-.261-.511-.227-.882.285-1.239 1.802-1.26 3.689-2.346 5.799-3.004 1.208-.376 1.661-.243 2.383.798 2.29 3.302 4.309 6.768 6.133 10.344zm-4.737-10.567c1.15.939 2.697 3.44 3.2 5.138-1.145-1.664-2.028-3.491-3.2-5.138zm6.497 12.52c.356.63.099 1.097-.314 1.525-1.617 1.676-3.323 3.174-5.759 3.574-.691.113-1.333.485-2.081.531-.954.059-1.653-.224-2.131-1.056-.194-.338-.512-.607-.598-1.039 3.98 1.967 9.471.188 10.883-3.535zm-3.905 10.641c-3.996 3.26-7.499 7.058-11.411 10.42-3.539 3.041-6.671 6.519-9.436 10.307l-10.521 14.021c-1.554 2.034-3.113 4.05-4.869 5.912l-5.514 5.843c-.503.523-1.087.975-1.664 1.419-.934.718-.976.729-1.877-.009l-5.98-4.99c-2.676-2.361-5.442-4.628-7.854-7.275l-2.22-2.423c-1.121-1.174-2.287-2.301-3.541-3.338-3.323-2.75-6.277-5.873-9.108-9.118-.533-.611-.545-.722.141-1.252 1.027-.793 2.079-1.557 3.155-2.282 2.666-1.796 4.992-4.016 7.509-5.995 3.1-2.436 5.878-5.235 8.934-7.712 3.592-2.911 7.174-5.831 11.008-8.439 3.757-2.556 7.267-5.451 10.709-8.424 1.779-1.538 3.601-3.029 5.443-4.493 2.325-1.847 4.46-3.894 6.516-6.03.324-.337.608-.806 1.28-.62.481.027.925.237 1.277.695a40.37 40.37 0 0 1 2.661 3.929c.19.317.274.668.332 1.035.207 1.295.707 2.471 1.401 3.587.814 1.309 1.561 2.66 2.335 3.994 1.245 2.145 2.716 4.137 4.152 6.154.791 1.11 1.846 1.533 3.181 1.265.199-.04.401-.061.599-.103.717-.153 1.227.041 1.618.722.503.876 1.015 1.767 1.813 2.427.382.316.219.538-.069.773zm5.799-4.352l-3.539 2.562c-.46.326-1.448.196-1.852-.301-.457-.563-.828-1.196-1.221-1.808-.219-.34-.136-.63.244-.782 1.756-.705 3.252-1.79 4.599-3.1.156-.152.384-.249.536-.062.692.851 1.175 1.83 1.629 2.677.075.481-.165.646-.396.814zm55.866-19.451c-.283 1.398-1.114 2.34-2.272 3.001-2.758 1.573-5.75 2.09-8.921 1.737a17.24 17.24 0 0 0 3.125-2.744c.462-.515.875-1.068 1.163-1.702.125-.275.17-.572-.117-.767s-.546-.056-.746.179c-.131.154-.242.326-.351.497-1.104 1.731-2.643 2.984-4.487 3.808-3.443 1.537-6.894 3.063-10.397 4.455-3.545 1.408-7.272 2.276-10.913 3.4-.891.275-1.817.447-2.688.773-3.664 1.372-7.51 2.034-11.297 2.918-1.763.412-3.413 1.015-4.943 1.968-.275.172-.559.329-.84.492-.381.222-.688.162-.923-.229l-1.705-2.81c-.189-.308-.104-.631-.084-.95a4.87 4.87 0 0 0-.353-2.144c-1.3-3.244-2.759-6.412-4.545-9.42-.831-1.4-1.808-2.686-2.931-3.875-.734-.778-1.54-1.179-2.592-.976-.76.146-1.267-.092-1.511-.84a1.5 1.5 0 0 0-.456-.706c-1.31-1.112-2.298-2.508-3.359-3.838-.527-.66-.519-.726.2-1.227 1.964-1.369 3.951-2.704 5.735-4.312l1.453-1.294c1.365-1.274 2.738-2.532 4.319-3.548.679-.436 1.298-.972 1.922-1.488.489-.405 4.53-4.833 5.771-6.22 1.514-1.693 3.083-3.338 4.654-4.979 1.991-2.08 3.857-4.283 6.011-6.204 2.209-1.972 4.379-3.993 6.666-5.87 2.797-2.295 5.978-4.034 9.05-5.925.544-.336 1.184-.525 1.792-.747 1.604-.585 3.245-.667 4.911-.315.199.042.403.059.599.109 4.328 1.093 3.515.805 6.045 4.303.413.571.606 1.229.639 1.939.021.445.095.887.152 1.329.099.772.511 1.259 1.292 1.411.199.039.389.126.589.152 1.28.17 2.263.758 2.959 1.887.839 1.361 1.367 2.763.975 4.384-.162.67-.291 1.352-.507 2.006-.387 1.167-.002 2.06.882 2.811.093.079.18.167.282.232 2.446 1.549 3.246 3.914 3.339 6.655.033.959-.169 1.86-.507 2.732-.409 1.054-.394 2.045.196 3.031.466.777.66 1.645.795 2.537.282 1.855.936 3.613 1.521 5.383.983 2.973 1.024 5.959.408 9.001zm-1.471-19.949c.845 1.406 1.218 2.703.604 4.415-.318-1.573-1.786-2.676-.604-4.415zm92.018-34.89c-7.624 4.327-14.981 9.089-22.341 13.845l-10.269 6.531c-1.057.678-2.071 1.427-3.084 2.171-2.177 1.598-3.59 3.7-4.206 6.35l-3.413 14.58c-.774 3.393-1.499 6.823-2.888 10.049l-.585 1.338c-.84 2.041-2.32 3.139-4.517 3.612-3.489.75-7.005 1.347-10.503 2.039-2.68.531-5.394.579-8.056-.308-.77-.257-1.408-.612-1.807-1.329l-1.165-2.136c-.638-1.203-.196-2.461-.166-3.697.002-.103.112-.214.194-.302 1.132-1.218 2.223-2.479 3.758-3.235.812-.4 1.634-.702 2.554-.699.653.002 1.297-.095 1.889-.392.231-.115.375-.321.306-.598s-.285-.404-.543-.395c-.363.013-.725.076-1.087.117-2.947.017-5.168 1.482-7.029 3.598-1.181 1.343-2.402 2.649-3.705 3.865-2.55 2.379-5.495 3.177-8.864 1.957-.789-.286-1.463-.739-1.895-1.455-.829-1.375-1.487-2.767-1.468-4.483.021-1.815-.251-3.636-.843-5.388-.481-1.421-.901-2.863-1.335-4.3-.159-.526-.27-1.031.474-1.261.336-.103.387-.493.467-.809.31-1.217.248-2.421-.202-3.589-.349-.905-.738-1.795-1.147-2.675-.142-.304-.208-.607-.252-.929-.099-.723-.246-1.442-.309-2.168-.178-2.051-1.258-3.581-2.81-4.795-2.13-1.666-1.713-1.574-1.12-3.434.799-2.504.149-4.627-1.219-6.669-.238-.356-.45-.629-.067-1.052.312-.344.128-.713-.263-.886-.727-.321-.93-.982-1.135-1.641a15.72 15.72 0 0 1-.726-4.555c-.015-2.15 1.101-3.836 2.566-5.338 1.662-1.702 3.787-2.458 5.989-3.067l12.236-3.209c1.936-.566 3.998-.69 5.958-1.191 3.654-.935 7.348-1.693 11.001-2.623 2.621-.667 4.948-2.034 7.349-3.202 2.552-1.242 5.021-2.654 7.548-3.946 8.024-4.103 15.761-8.709 23.506-13.307 5.58-3.311 11.24-6.492 17.209-9.082 2.01-.872 3.928-1.935 5.776-3.121 1.07-.687 1.062-.659 1.88.269 3.884 4.411 6.448 9.518 7.966 15.168.852 3.173 1.945 6.289 2.442 9.549.421 2.766.77 5.545 1.102 8.324.148 1.248.037 1.34-1.113 1.799-4.195 1.673-8.122 3.882-12.038 6.105zm8.739 2.311c-.733.357-1.509.237-2.211-.178-1.073-.633-2-1.505-3.244-1.864-.446-.129-.362-.479.011-.702.485-.29.971-.583 1.472-.845 2.294-1.198 4.583-2.406 6.97-3.414.224-.094.445-.198.677-.267.597-.178.727-.085.764.519.007.121.001.243.001.364-.005 3.158-1.784 5.091-4.44 6.387zm37.09-15.868c-1.564 2.475-3.884 4.238-6.338 5.781-3.368 2.119-6.819 4.104-10.506 5.62-3.075 1.265-6.181 2.461-9.306 3.595-1.766.64-3.627.834-5.517.711-.803-.052-1.613-.008-2.579-.008l1.262-1.547c1.213-1.459 1.433-3.235 1.58-5.025.051-.622.065-1.19.704-1.564.378-.222.418-.693.002-.887-.801-.372-.763-1.091-.853-1.75l-.73-5.797c-.236-2.021-.604-4.018-1.176-5.967-1.142-3.891-2.002-7.866-3.655-11.603-1.525-3.446-3.487-6.595-5.93-9.454l-2.277-2.697c-.681-.813-1.41-1.57-2.318-2.136-.312-.194-.63-.379-1-.425-.389-.048-.768.024-.875.46-.112.454.195.662.595.75 1.242.274 1.977 1.197 2.718 2.116.292.363.267.66-.126.911-.992.633-1.97 1.294-3.041 1.787-.534.246-.751.11-.848-.45a1.83 1.83 0 0 1-.012-.485c.178-1.822.106-3.651.126-5.477.027-2.527.818-4.737 2.324-6.778 2.579-3.495 5.759-6.381 9.048-9.151 2.842-2.394 6.217-3.794 9.758-4.806 3.167-.905 6.436-1.304 9.66-1.924.279-.054.593-.124.838.026 1.146.701 2.253 1.485 2.807 2.754.201.461.342.787.869.832.298.026.503.24.727.415 4.303 3.368 7.471 7.608 9.861 12.505 1.945 3.986 3.52 8.122 5.071 12.259 1.486 3.961 2.252 8.129 2.761 12.33.663 5.473-.721 10.486-3.624 15.079zm-130.974 44.746c-.897.284-1.689.771-2.404 1.377-.45.383-.713.963-1.384 1.118-.338.079-.358.499-.362.832.039.37.098.752.482.915.415.176.724-.057.898-.406.689-1.379 1.816-2.242 3.206-2.817.31-.128.618-.332.486-.722-.155-.457-.569-.409-.922-.297zm-5.649-16.494c-.15-.051-.317-.055-.358-.062-1.683-.027-3.61 2.093-3.505 3.723.016.263.111.492.384.554s.478-.097.59-.329l.587-1.335c.348-.794.907-1.332 1.785-1.492a2.88 2.88 0 0 0 .586-.15c.197-.08.32-.243.3-.476s-.17-.366-.369-.433z"/></g><g clip-path="url(#L)" class="F"><path d="M280.954 292.891l1.116-.12c.265-.009.487.125.557.404s-.076.494-.313.613c-.608.303-1.27.402-1.94.4-.945-.002-1.788.306-2.622.715-1.577.774-2.696 2.064-3.859 3.311-.083.089-.196.203-.199.308-.03 1.265-.484 2.553.17 3.784l1.197 2.185c.409.733 1.064 1.097 1.855 1.36 2.733.907 5.52.858 8.271.315l10.784-2.087c2.255-.483 3.775-1.607 4.637-3.695l.601-1.37c1.426-3.3 2.17-6.809 2.965-10.281l3.504-14.918c.633-2.712 2.083-4.862 4.319-6.498 1.04-.761 2.081-1.527 3.166-2.221l10.544-6.683c7.557-4.866 15.11-9.738 22.938-14.166 4.02-2.274 8.052-4.534 12.359-6.246 1.181-.47 1.295-.564 1.142-1.841l-1.131-8.517c-.51-3.336-1.631-6.524-2.507-9.77-1.559-5.781-4.191-11.006-8.179-15.52-.839-.949-.831-.978-1.93-.275-1.897 1.213-3.866 2.301-5.93 3.194-6.128 2.649-11.94 5.904-17.669 9.292-7.952 4.704-15.895 9.417-24.134 13.615l-7.749 4.037c-2.466 1.196-4.855 2.594-7.546 3.277-3.751.952-7.544 1.727-11.295 2.684-2.012.513-4.129.64-6.118 1.218-4.159 1.211-8.39 2.135-12.562 3.284-2.261.623-4.443 1.396-6.149 3.138-1.505 1.537-2.65 3.262-2.635 5.462.011 1.57.272 3.144.745 4.661.211.674.42 1.351 1.166 1.679.402.177.59.555.27.906-.393.433-.176.712.069 1.076 1.405 2.09 2.071 4.262 1.251 6.825-.609 1.903-1.037 1.808 1.15 3.513 1.593 1.242 2.702 2.808 2.886 4.905.064.744.215 1.479.316 2.22.046.329.114.639.259.95.421.9.82 1.811 1.178 2.737.462 1.195.525 2.427.208 3.673-.083.323-.135.721-.48.827-.764.235-.65.752-.487 1.29l1.371 4.4c.608 1.793.887 3.656.866 5.513-.02 1.755.655 3.18 1.507 4.587.443.733 1.135 1.196 1.946 1.488 3.459 1.249 6.482.432 9.1-2.002 1.338-1.245 2.592-2.58 3.805-3.954 1.91-2.165 4.19-3.665 7.216-3.682z"/></g><g clip-path="url(#M)" class="D"><path d="M254.187 288.984c-.583-1.764-1.234-3.517-1.516-5.366-.135-.89-.328-1.755-.792-2.53-.588-.982-.603-1.971-.196-3.022.337-.869.539-1.767.506-2.723-.093-2.732-.89-5.09-3.328-6.635-.102-.064-.188-.152-.281-.23-.881-.75-1.265-1.639-.88-2.803.216-.652.345-1.331.507-2 .39-1.616-.137-3.013-.973-4.371-.693-1.125-1.673-1.71-2.949-1.88-.199-.026-.389-.113-.587-.152-.778-.152-1.189-.637-1.288-1.407l-.151-1.324c-.033-.709-.226-1.364-.637-1.933-2.522-3.487-1.711-3.201-6.025-4.29-.195-.049-.399-.067-.596-.109-1.661-.351-3.297-.269-4.895.315-.606.221-1.244.409-1.787.744-3.061 1.886-6.231 3.619-9.019 5.907-2.28 1.871-4.442 3.886-6.644 5.851-2.146 1.916-4.006 4.111-5.991 6.185l-4.638 4.964c-1.237 1.383-5.264 5.797-5.752 6.201-.622.514-1.238 1.048-1.916 1.483-1.575 1.013-2.944 2.267-4.304 3.537-.472.441-.968.857-1.449 1.29-1.777 1.603-3.758 2.934-5.715 4.299-.717.5-.725.565-.2 1.223 1.058 1.326 2.043 2.718 3.349 3.826.224.19.364.429.454.703.243.746.748.984 1.506.838 1.048-.202 1.852.198 2.583.973 1.119 1.186 2.093 2.468 2.921 3.863 1.781 2.999 3.235 6.157 4.53 9.391a4.87 4.87 0 0 1 .352 2.138c-.02.318-.105.64.084.946l1.699 2.802c.235.39.54.449.92.228l.837-.49c1.525-.951 3.169-1.552 4.927-1.962 3.774-.881 7.607-1.541 11.259-2.909.868-.325 1.791-.497 2.679-.771 3.629-1.121 7.343-1.986 10.876-3.39 3.492-1.387 6.931-2.908 10.362-4.441 1.838-.821 3.372-2.07 4.473-3.796.109-.17.219-.342.35-.495.199-.234.458-.372.743-.178s.241.49.117.764c-.288.633-.699 1.184-1.16 1.697-.921 1.027-1.945 1.935-3.114 2.735 3.16.352 6.142-.163 8.891-1.732 1.154-.658 1.983-1.598 2.265-2.991.614-3.033.573-6.009-.407-8.973zm-60.984 31.931c-.795-.657-1.305-1.546-1.806-2.419-.39-.679-.899-.872-1.613-.72l-.597.103c-1.331.267-2.382-.154-3.171-1.261l-4.138-6.135-2.327-3.982c-.691-1.112-1.19-2.285-1.396-3.575-.058-.367-.142-.716-.331-1.032-.811-1.355-1.687-2.665-2.652-3.917-.351-.457-.794-.666-1.273-.693-.67-.186-.953.282-1.276.618-2.048 2.13-4.176 4.17-6.494 6.012l-5.425 4.479c-3.43 2.964-6.929 5.849-10.673 8.397-3.821 2.6-7.391 5.512-10.971 8.414-3.046 2.468-5.815 5.259-8.904 7.688-2.509 1.972-4.827 4.185-7.485 5.976-1.072.723-2.121 1.485-3.144 2.275-.684.528-.672.639-.14 1.248 2.821 3.235 5.765 6.348 9.078 9.09 1.249 1.034 2.411 2.157 3.528 3.327.754.79 1.477 1.609 2.213 2.416 2.404 2.639 5.161 4.899 7.828 7.252 1.94 1.712 3.957 3.336 5.959 4.976.899.735.941.723 1.871.008.576-.442 1.157-.893 1.659-1.415l5.496-5.824c1.75-1.856 3.304-3.866 4.852-5.894l10.486-13.978c2.756-3.776 5.878-7.243 9.404-10.275 3.899-3.352 7.391-7.138 11.374-10.388.287-.234.45-.455.068-.771z"/></g></g><g clip-path="url(#N)"><g class="E"><path d="M292.284 92.932l83.58 3.236c1.377.045 2.833.071 4.034-.632 1.033-.604 1.732-1.665 2.393-2.689l6.609-10.235c.624-1.273-1.014-2.672-24.687-2.445-8.864.085-18.06-.178-26.916-.599-7.588-.361-26.485-1.664-33.867 0-5.258 1.185-13.012 10.659-11.146 13.363z"/><path d="M297.916 108.477c.014.485.05 1.029.303 1.339.193.238.462.271.713.292 2.672.228 5.352.263 8.027.106.542-.032 1.125-.094 1.542-.605.55-.675.613-1.867.634-2.923l.306-15.81c.008-.419.003-.889-.199-1.183-.194-.282-.499-.294-.771-.289-2.474.05-8.11-1.523-9.908 1.723-1.811 3.269-.774 13.369-.647 17.35zm14.058-30.012c.012.713.042 1.512.252 1.968.16.349.384.398.592.429a26.39 26.39 0 0 0 6.672.155c.449-.047.934-.139 1.281-.89.457-.992.509-2.743.526-4.294l.282-23.855c-.015-2.541-1.222-1.76-2.505-1.971-.879-.144-1.733-.61-2.606-.821-1.656-.4-3.526-.285-4.293 2.165-1.505 4.802-.306 21.264-.201 27.113z"/><path d="M310.811 43.412l-5.336.304c-.945.194-1.078.465-1.164.716-.906 2.685-1.047 5.377-.421 8.064.127.544.376 1.13 2.412 1.548 2.688.553 7.436.616 11.643.637l44.177.216 22.218.113c.618.003 1.273-.005 1.796-.365 1.515-1.045 2.354-5.299 1.632-6.954-.664-1.523-2.252-2.261-3.642-2.719-1.368-.451-2.789-.712-4.205-.91-13.019-1.819-53.253-.778-69.11-.65zm-.032 17.028l-5.337.304c-.944.194-1.078.464-1.163.716-.906 2.685-1.047 5.377-.421 8.064.127.544.376 1.13 2.412 1.548 2.688.553 7.436.616 11.643.637l62.977.308c1.525.008 3.615.647 5.025-.341 1.313-.92 1.954-3.152 2.121-4.752.07-.666.066-1.352-.113-1.993-.893-3.19-5.562-3.544-8.034-3.841-13.02-1.819-53.253-.778-69.11-.65z"/><path d="M372.37 80.657c.011.723.038 1.533.23 1.995.147.353.352.403.543.435a21.86 21.86 0 0 0 6.112.157c.412-.047.856-.141 1.174-.902.419-1.005.467-2.78.482-4.353l.234-23.548c.006-.623.002-1.324-.152-1.762-.148-.421-.379-.439-.587-.431-1.883.074-6.175-2.267-7.543 2.567-1.379 4.868-.59 19.912-.493 25.841zm-13.736 32.31c.014.538.048 1.141.29 1.485.184.263.442.3.681.324a46.04 46.04 0 0 0 7.672.117c.518-.035 1.075-.104 1.473-.671.526-.748.586-2.07.606-3.241l.293-17.532c.008-.464.003-.986-.19-1.312-.186-.313-.477-.327-.737-.321-2.365.055-7.751-1.688-9.469 1.911-1.73 3.624-.74 14.824-.619 19.239zm18.256-5.857c.012.539.041 1.143.247 1.487.158.264.378.301.582.325 2.183.252 4.371.291 6.555.117.442-.035.918-.105 1.259-.672.449-.749.501-2.072.517-3.245l.251-17.549c.006-.465.002-.987-.163-1.313-.159-.314-.407-.327-.63-.321-2.02.055-6.622-1.69-8.09 1.913-1.478 3.628-.632 14.839-.528 19.258zm-59.786-.717c.013.415.045.88.27 1.145.172.203.412.231.635.249 2.381.195 4.769.225 7.151.091.483-.027 1.002-.081 1.374-.518.49-.576.546-1.595.564-2.497l.273-13.508c.008-.358.003-.76-.177-1.011-.173-.241-.444-.252-.687-.247-2.204.042-7.224-1.301-8.826 1.472-1.613 2.793-.69 11.423-.577 14.824z"/></g><g class="H"><path d="M308.165 66.264a486.31 486.31 0 0 1 20.418-.753c.565-.009.567-.892 0-.883a489.73 489.73 0 0 0-20.418.753c-.562.033-.566.916 0 .883zm51.918.025l-18.954.628c-.564.019-.567.902 0 .883l18.954-.628c.565-.019.567-.902 0-.883zm16.19-17.027l-35.584.418c-.565.001-.566.884 0 .883l35.584-.418c.565-.012.567-.895 0-.883zm-60.095-2.11a316.24 316.24 0 0 0 26.116 1.319c.565.005.566-.878 0-.883a315.85 315.85 0 0 1-26.116-1.319c-.563-.052-.56.831 0 .883zm61.701 36.221a448.18 448.18 0 0 1-40.544.719c-.566-.016-.565.868 0 .883 13.519.372 27.047.133 40.544-.718.562-.035.566-.919 0-.883zm-65.201 3.17a396.8 396.8 0 0 0 18.97 1.647c.565.035.563-.848 0-.883a396.54 396.54 0 0 1-18.97-1.647c-.562-.062-.557.821 0 .883zm-12.973 2.718l10.356.428c.566.023.565-.86 0-.883l-10.356-.428c-.566-.023-.565.86 0 .883zm8.897-7.181a300.79 300.79 0 0 0 16.044.574c.566.005.566-.878 0-.883a300.58 300.58 0 0 1-16.044-.574c-.565-.035-.563.848 0 .883zm65.048 7.476c-8.361-.186-16.724-.194-25.085-.021-.565.012-.567.895 0 .883a585.97 585.97 0 0 1 25.085.021c.566.013.566-.87 0-.883z"/></g></g><defs><clipPath id="A"><path transform="matrix(0 1 -1 0 265.417 0)" d="M0 0h91.401v92.417H0z" class="B"/></clipPath><clipPath id="B"><path transform="translate(0 10)" d="M0 0h118v136H0z" class="B"/></clipPath><clipPath id="C"><path transform="matrix(-1 0 0 -1 172.346 366.615)" d="M0 0h92.417v91.401H0z" class="B"/></clipPath><clipPath id="D"><path transform="matrix(-1 0 0 -1 172.346 182.796)" d="M0 0h92.417v91.401H0z" class="B"/></clipPath><clipPath id="E"><path transform="matrix(0 1 -1 0 448.417 92)" d="M0 0h91.401v92.417H0z" class="B"/></clipPath><clipPath id="F"><path transform="matrix(0 1 -1 0 172.346 182.796)" d="M0 0h92.417v92.417H0z" class="B"/></clipPath><clipPath id="G"><path transform="matrix(0 1 -1 0 356.165 275.213)" d="M0 0h91.401v92.417H0z" class="B"/></clipPath><clipPath id="H"><path transform="matrix(0 1 -1 0 263.748 183.812)" d="M0 0h183.819v91.401H0z" class="B"/></clipPath><clipPath id="I"><path transform="matrix(0 1 -1 0 356.165 183.812)" d="M0 0h91.401v92.417H0z" class="B"/></clipPath><clipPath id="J"><path transform="matrix(.992023 .126056 -.126056 .992023 385.623 217)" d="M0 0h97v116H0z" class="B"/></clipPath><clipPath id="K"><path transform="translate(74 163)" d="M0 0h262v230H0z" class="B"/></clipPath><clipPath id="L"><path transform="translate(246.612 201.591)" d="M0 0h115.588v104.966H0z" class="B"/></clipPath><clipPath id="M"><path transform="translate(119 248)" d="M0 0h136v122H0z" class="B"/></clipPath><clipPath id="N"><path transform="translate(292 43)" d="M0 0h97v72H0z" class="B"/></clipPath><path id="O" d="M6.719 68.256c.117.41.795.261 1.219.239l3.276-.165.763-.038c4.103-10.346-7.353-7.403-5.258-.036z"/><path id="P" d="M37.387 68.256c.117.41.795.261 1.218.239l3.276-.165.763-.038c4.103-10.346-7.353-7.403-5.258-.036z"/><path id="Q" d="M28.705 112.59c.117.41.795.261 1.219.24l3.276-.165.763-.038c4.103-10.346-7.353-7.403-5.258-.037z"/><path id="R" d="M7.216 127.886c.116.41.795.261 1.219.239l3.276-.164.763-.039c4.103-10.346-7.353-7.403-5.258-.036z"/><path id="S" d="M57.443 32.366c.148.519 1.008.33 1.545.303l4.153-.209.967-.049c5.201-13.116-9.322-9.385-6.665-.046z"/><path id="T" d="M57.443 45.096c.148.519 1.008.331 1.545.304l4.153-.209.967-.049c5.201-13.116-9.322-9.385-6.665-.046z"/><path id="U" d="M68.545 45.847c.148.519 1.008.331 1.545.303l4.153-.209.967-.049c5.201-13.116-9.322-9.385-6.666-.046z"/><path id="V" d="M96.322 45.096c.148.519 1.008.331 1.545.304l4.153-.209.967-.049c5.201-13.116-9.321-9.385-6.665-.046z"/><path id="W" d="M57.443 57.826c.148.519 1.008.331 1.545.303l4.153-.209.967-.049c5.201-13.116-9.322-9.385-6.665-.046z"/><path id="X" d="M130.296 182.796h8.317V91.394h-8.317v91.402z"/><path id="Y" d="M146.931 182.796h8.318V91.394h-8.318v91.402z"/><path id="Z" d="M432.453 245.112a47.25 47.25 0 0 0-4.307 7.61l4.307-7.61z"/><path id="a" d="M418.188 243.476c.771 2.839 1.802 5.599 3.059 8.192l-3.059-8.192z"/><path id="b" d="M459.525 270.031c-2.088 2.071-3.98 4.329-5.615 6.702l5.615-6.702z"/></defs></svg>