<svg xmlns="http://www.w3.org/2000/svg" width="1067" height="485" fill="none" xmlns:v="https://vecta.io/nano"><g clip-path="url(#A)"><g fill="#fdf5da"><path d="M325.548-204.087c18.365-28.91-7.34-23.326 17.801-45.898 29.132-26.154 16.533-44.984 123.761-64.156 40.576-7.255 90.112 50.011 131.328 50.529 49.305.621 102.004-70.473 150.851-63.731 4.564.63 9.391 1.403 12.896 4.395 3.008 2.568 4.577 6.381 6.524 9.824 13.27 23.458 44.309 29.768 71.215 28.359s54.468-7.937 80.332-.386c30.645 8.947 53.233 36.153 83.674 45.77 14.77 4.668 30.68 4.93 45.39 9.789s29.08 16.521 29.67 32.008c.4 10.485-5.51 19.996-9.43 29.727-8.45 20.982 7.29 15.103 7.29 37.997 0 46.342-13.71 21.735-31.66 50.571-15.25 24.501 0 71.366 16.8 99.921 8.68 14.737 18.67 28.81 23.83 45.113 4.3 13.584 1.24 28.301-2.3 42.101-5.63 21.911-12.39 43.528-20.26 64.735-4.07 10.959-8.49 22.093-8.74 33.78-.39 18.711 9.84 35.738 15.78 53.485 16.57 49.529-.57 103.336-17.62 152.703-6.12 17.723-13.06 36.586-28.28 47.528-13.81 9.925-31.822 11.381-48.821 11.652-36.124.574-72.306-2.651-107.759-9.605-14.213-2.788-29.769-7.176-37.41-19.485-3.169-5.103-4.84-11.408-9.587-15.088-3.929-3.047-9.169-3.642-14.117-4.126-30.233-2.954-53.433 13.6-83.666 10.646-9.223-.901-25.743-21.289-34.647-18.72-8.944 2.58-16.518 8.409-24.466 13.255-51.839 31.604-55.872-58.467-105.451-93.513-31.917-22.562-135.393 115.12-170.983 98.968-13.264-6.019-16.707-100.875-25.963-112.125-11.864-14.42-10.238-35.901-3.362-53.265 9.597-24.235 25.733-42.955 29.229-69.633 3.561-27.163-41.077-21.888-50.926-47.216-15.94-40.99 5.377-73.423-11.653-113.972-12.497-29.754 10.459-111.403 8.454-143.607-1.757-28.224-2.584-38.934 12.743-64.04.429-.703-20.911-33.591-20.467-34.291z"/><path d="M326.473-203.546c5.011-8.021 8.432-15.85 6.635-25.314-.585-3.082-.774-5.7.675-8.604 2.573-5.156 7.42-9.051 11.559-12.89 8.336-7.736 14.548-17.213 22.305-25.454 10.249-10.89 23.68-17.431 37.636-22.303 12.436-4.342 25.269-7.519 38.133-10.299 14.233-3.075 28.652-7.186 43.161-3.801 25.7 5.996 47.637 23.593 70.477 35.955 10.529 5.699 21.746 11.078 33.665 13.007 10.929 1.769 21.861-.198 32.154-4.02 24.455-9.082 45.265-25.977 67.228-39.619 10.894-6.765 22.281-13.214 34.612-16.954 5.403-1.638 10.991-2.726 16.646-2.865 7.171-.175 16.755.395 21.715 6.194 2.465 2.88 3.816 6.608 5.825 9.794 1.655 2.623 3.58 5.079 5.715 7.327 4.3 4.527 9.495 8.171 15.063 10.967 11.9 5.974 25.391 8.372 38.607 8.837 17.465.614 34.81-2.551 52.197-3.659 18.324-1.168 36.306.329 53.035 8.399 14.088 6.796 26.508 16.451 39.539 24.99 13.487 8.839 27.345 15.555 43.275 18.603 16.39 3.137 33.95 4.164 47.8 14.507 6.28 4.692 11.62 11.214 13.27 19.028 1.91 9.015-1.81 17.679-5.44 25.73-2.55 5.66-5.94 11.843-5.96 18.223-.02 3.652 1.52 6.533 3.61 9.417 2.7 3.736 4.83 7.405 5.66 12.025 1.33 7.456.68 15.986-.46 23.451-1.16 7.536-3.79 12.258-10.69 15.483-7.37 3.447-13.11 7.821-17.87 14.56-15.56 22.068-7.14 53.69 1.74 76.711 5.48 14.212 12.93 27.128 20.85 40.09 9.77 15.994 19.4 32.609 17.77 52.01-.79 9.356-3.28 18.51-5.69 27.551-2.52 9.438-5.25 18.819-8.19 28.134a660.12 660.12 0 0 1-9.44 27.738c-3.03 8.287-6.42 16.516-8.33 25.158-3.76 16.987 1.2 32.529 7.58 48.188 6.95 17.071 12.25 33.846 13.22 52.404 1.93 37.024-9.24 73.419-21.01 108.068-5.15 15.18-9.91 31.276-19.47 44.38-10.55 14.459-26.55 20.545-43.874 22.259-18.007 1.782-36.488 1.028-54.518-.037a515.22 515.22 0 0 1-59.651-7.025c-14.551-2.583-32.099-4.983-42.664-16.453-4.996-5.424-6.444-13.186-11.665-18.364-4.912-4.872-12.427-5.451-18.973-5.845-16.032-.964-31.357 3.725-46.756 7.432-8.078 1.945-16.27 3.53-24.599 3.758-3.508.095-7.598.356-10.991-.65-2.588-.768-4.955-2.411-7.145-3.937-4.769-3.324-9.16-7.167-14.001-10.39-3.282-2.185-7.371-4.768-11.507-4.195-7.086.982-14.069 6.2-19.912 9.956-5.139 3.303-10.278 6.668-16.139 8.55-18.716 6.007-31.089-9.283-39.928-23.59-11.632-18.825-20.691-39.195-34.699-56.498-3.6-4.447-7.502-8.66-11.779-12.465-2.982-2.653-6.245-5.718-9.955-7.321-4.45-1.923-9.502-1.393-14.048-.105-14.728 4.174-27.772 14.818-39.553 24.15-15.997 12.673-31.165 26.353-46.744 39.527-13.753 11.631-27.867 23.736-43.873 32.196-5.346 2.826-11.334 5.524-17.479 5.743-5.374.192-8.572-1.565-10.769-6.442-3.275-7.273-4.672-15.533-6.102-23.322-1.882-10.249-3.323-20.577-4.764-30.895l-4.472-30.212c-1.125-6.529-2.078-13.676-4.919-19.737-2.085-4.45-5.507-7.892-7.258-12.635-2.635-7.143-3.119-14.927-2.315-22.453 1.738-16.25 9.74-30.738 17.334-44.897 7.489-13.964 14.928-28.424 16.868-44.38 1.014-8.341-2.496-14.867-9.344-19.512-7.943-5.388-17.439-8.026-25.847-12.565-4.489-2.424-8.827-5.363-12.047-9.378-4.626-5.768-6.504-13.734-7.962-20.827-3.355-16.322-1.586-32.85-.673-49.314.892-16.088.215-32.162-5.592-47.378-8.104-21.236-4.535-45.051-1.642-67.059 3.099-23.564 8.237-47.208 9.075-71.01.43-12.207-1.736-24.366-.657-36.582.542-6.145 2.014-12.127 4.305-17.851 1.385-3.461 3.045-6.811 4.825-10.083 1.119-2.057 4.325-5.565 4.182-7.893-.106-1.727-2.192-4.108-3.037-5.509l-6.892-11.167-6.929-11.199-2.512-4.206c-.312-.545-.991-2.416-1.102-1.594.182-1.348-1.881-1.932-2.065-.569-.224 1.659 1.654 3.835 2.434 5.143l7.055 11.466 7.523 12.155 2.454 4.116c1.112 1.96.942 1.576-.348 3.578-6.926 10.748-11.477 23.204-12.208 35.991-.695 12.17 1.367 24.282.731 36.444-1.29 24.644-6.549 49.028-9.578 73.487-1.5 12.115-2.754 24.35-2.559 36.574.078 4.889.398 9.8 1.259 14.619.994 5.567 3.337 10.501 5.077 15.848 10.492 32.249-2.795 66.222 6.291 98.694 1.625 5.809 3.547 11.592 7.524 16.232 3.116 3.636 7.123 6.425 11.284 8.737 8.5 4.722 18.131 7.365 26.26 12.758 3.748 2.487 7.034 5.783 8.252 10.231 1.797 6.565-.655 14.341-2.564 20.614-4.745 15.599-13.632 29.389-20.81 43.902-6.643 13.433-11.877 27.93-10.692 43.158.526 6.762 2.373 13.48 5.963 19.274 1.82 2.936 3.853 5.138 4.975 8.433 2.532 7.44 3.631 15.445 4.841 23.182l4.541 31.705c1.444 10.08 2.931 20.176 5.049 30.141 1.386 6.517 2.754 14.027 6.473 19.709 5.988 9.151 20.7 3.105 28.108-.623 15.973-8.036 30.038-20.033 43.645-31.47l47.43-40.177c12.041-9.627 25.73-21.127 41.004-25.043 5.252-1.346 10.268-1.166 14.761 2.053 9.923 7.109 17.973 16.676 24.849 26.674 12.438 18.085 20.758 38.856 33.966 56.398 4.543 6.033 10.007 11.869 17.128 14.785 7.428 3.041 15.398 1.967 22.623-1.129 6.197-2.656 11.647-6.676 17.361-10.195 5.833-3.592 13.138-8.835 20.058-5.63 5.199 2.408 9.69 6.365 14.208 9.816 3.801 2.903 7.975 6.456 12.73 7.628 6.759 1.665 14.895.585 21.691-.394 8.019-1.155 15.859-3.214 23.703-5.201 8.193-2.075 16.446-4.073 24.885-4.827 8.107-.724 18.929-1.307 26.324 2.662 7.132 3.829 8.616 13.048 13.389 19.021 4.116 5.152 9.804 8.725 15.812 11.28 6.676 2.839 13.78 4.474 20.877 5.858a514.59 514.59 0 0 0 29.022 4.794 519.88 519.88 0 0 0 57.361 4.609c16.903.416 34.731 1.09 51.252-3.156 14.9-3.831 26.59-12.789 34.54-25.908 8.32-13.726 12.94-29.641 18-44.76 11.57-34.579 22.14-71.161 19.14-108.021-1.44-17.675-6.92-33.655-13.53-49.967-3.24-7.998-6.36-16.152-7.76-24.706-1.6-9.811-.14-19.395 2.81-28.808 5.68-18.145 12.92-35.752 18.39-53.992 2.79-9.313 5.42-18.686 7.75-28.127 2.14-8.681 3.96-17.617 3.71-26.605-.5-17.415-10.58-33.193-19.41-47.593-8.32-13.58-15.85-27.275-21.21-42.331-8.68-24.366-15.9-58.059 6.08-77.726 4.86-4.353 11.4-5.661 16.29-9.775 6.34-5.339 6.68-15.473 7.02-23.054.31-6.671.68-13.762-1.83-20.095-1.45-3.675-4.02-6.469-6.03-9.795-2.85-4.694-1.57-9.843.25-14.702 3.04-8.078 7.69-15.607 9.33-24.174 2.66-13.841-4.97-25.8-16.15-33.351-14.16-9.568-31.59-10.406-47.85-13.661-16.467-3.294-30.636-10.91-44.465-20.187-13.082-8.775-25.79-18.42-40.334-24.706-33.391-14.432-68.319-1.887-102.948-3.259-14.347-.568-29.247-3.474-41.608-11.112-6.134-3.79-11.514-8.814-15.366-14.937-3.641-5.787-5.692-11.982-12.551-14.665-10.878-4.255-24.114-2.585-34.952.835-11.825 3.732-22.803 9.845-33.314 16.328-22.625 13.955-44.066 31.773-69.432 40.616-11.447 3.991-23.185 5.205-35.002 2.145-12.744-3.3-24.521-9.775-35.841-16.329-11.986-6.941-23.667-14.434-35.958-20.839-10.489-5.467-21.689-10.417-33.545-11.797-5.855-.681-11.381-.035-17.142 1.023-8.624 1.584-17.224 3.303-25.774 5.252-12.439 2.834-24.85 6.09-36.797 10.605-13.137 4.965-25.463 11.648-35.039 22.089-8.125 8.858-14.92 18.519-23.815 26.706-5.431 5.001-12.101 11.183-10.962 19.269.407 2.896 1.204 5.635 1.02 8.598-.391 6.289-3.765 12.123-7.021 17.337-.733 1.172 1.119 2.249 1.849 1.081z"/></g><g fill="#fff"><path d="M961.788 472.61l-38.88-79.893c-2.137-4.471-4.506-8.721-6.903-13.054-2.292-4.246-4.604-8.6-6.035-13.241-1.945-7.431.365-15.204-1.245-22.597-.256-1.143-.616-2.208-1.236-2.865-.961-1.14-2.96-.997-4.473-1.1 0 .001-1.849-.069-1.849-.069l-3.698-.14-14.791-.534c-2.442-.082-4.86-.104-7.173.245-5.552.809-7.687 3.283-10.292 8.049-4.604 8.757-11.501 8.343-20.411 8.227l-14.82-.13c-2.504-.053-5.19-.203-7.819-1.191-6.507-2.56-9.834-9.138-14.174-14.074-.265-.278-1.546-1.708-1.868-2.053l-9.957-10.949c-3.268-3.77-6.917-7.082-11.029-9.945-2.012-1.49-4.093-2.918-6.008-4.49-3.907-3.081-7.028-6.888-10.367-10.516l-9.751-11.156c-6.394-7.559-12.566-15.359-18.597-23.265-12.017-15.788-24.166-31.579-34.019-48.839-6.184-10.702-11.672-21.947-16.245-33.434-6.338-15.843-10.574-32.964-19.493-47.559-10.184-17.73-27.107-26.658-44.698-35.833-17.456-9.471-34.671-19.66-49.572-32.946-2.826-2.657-5.858-5.065-7.932-8.456-3.249-5.89-2.416-12.988-1.208-19.299 1.989-9.839 7.119-18.745 11.296-27.694 1.833-3.74 4.042-9.664 5.658-13.591 5.595-13.717 10.664-27.601 15.843-41.48a723.65 723.65 0 0 1 17.176-41.047c8.052-18.059 18.387-34.987 26.968-52.758l18.503-40.363c.501.01-1.11-.132 1.625-.752.802.328 2.421 1.06 3.255 1.434l30.338 13.763c6.177 2.87 12.608 5.427 19.406 6.37.619.074 1.277.144 1.827.121 1.685-.082 3.056 1.465 2.778 3.127-.882 5.833-2.38 11.213-3.575 16.675-.026.034-.043.021-.059.051s-.004.17.135.381c1.318 1.734 3.666 2.642 5.71 3.536 8.264 3.146 17.161 4.49 25.925 5.681 13.391 1.661 26.946 2.559 40.453 2.949 6.687.115 13.454.355 20.094-.272 6.12-1.164 13.663-2.528 16.998-8.371 1.231-2.294 1.896-4.826 3.464-7.021 4.886-6.971 15.508-3.347 22.53-4.006l13.642-.197c4.532-.024 8.72-2.44 13.202-2.713 5.702-.297 11.412-.71 17.183.242 2.42.42 4.922 1.066 7.169 2.38 2.975.969 1.12 6.337.604 8.413-1.926 6.505-4.578 12.817-6.727 19.18-.572 1.881-1.438 4.065-1.529 6.007 1.006 4.85 17.39 9.051 22.142 10.551 2.163.646 4.325 1.242 6.538 2.04l38.057 13.897c-2.346-.168 78.926 1.335 78.486 1.327a1.51 1.51 0 0 1 1.48 1.526c-.02.828-.7 1.488-1.53 1.473l-78.978-1.418a1.54 1.54 0 0 1-.488-.091l-25.371-9.265-12.685-4.632c-6.35-2.148-13.025-3.721-19.315-6.189-3.73-1.541-10.621-4.166-11.307-8.781l-.026-.337c-.011-.81.106-1.416.226-2.025.37-1.736.906-3.388 1.458-5.041 1.466-4.316 3.1-8.509 4.6-12.73 1.196-3.581 2.676-7.155 3.01-10.887 0-.202-.009-.409-.035-.506-.011-.044-.022-.075-.011-.048.011.016.057.111.166.184l.612.286-.011.002c-7.163 1.328-13.922 3.69-21.213 4.571-1.817.243-3.726.313-5.531-.041-3.418-.711-6.72-2.281-10.237-2.373l-15.222-.351c-2.904.029-5.914-.524-8.615-.676-3.351-.156-7.137-.348-9.177 2.455-1.14 1.548-1.842 3.545-2.697 5.355-.907 1.898-2.166 3.591-3.721 4.992-4.528 3.965-10.514 5.136-16.184 6.269-11.546 1.109-23.219.475-34.765.188-15.953-.711-31.989-1.777-47.704-4.918-6.203-1.477-18.389-3.914-17.14-12.442.636-4.992 1.434-10.188 1.5-14.928l2.595 4.246c-3.813-3.336-8.123-6.212-12.584-8.559-4.186-2.248-9.17-4.305-13.382-6.342l-25.181-11.655-.836-.376-.409-.179-.161-.067c2.55-.755.944-.596 1.361-.491l-18.659 40.341c-6.46 13.334-13.936 26.186-20.559 39.4-13.259 26.476-23.236 54.389-33.41 82.15L582.05 13.372c-3.248 7.336-7.114 14.32-9.725 21.849-1.56 4.509-2.526 9.278-2.762 14.017-.208 4.486.5 9.208 3.883 12.435 15.666 15.493 35.029 26.719 54.308 37.15 18.004 9.305 35.8 18.828 46.244 37.207 8.766 14.608 12.493 31.037 18.022 46.878 2.706 7.438 5.774 14.96 9.252 22.068 10.766 22.139 25.69 42.052 43.495 59.035 10.59 10.32 21.615 20.214 31.922 30.843 3.416 3.569 7.018 6.99 9.806 11.164 2.821 4.148 5.106 8.767 7.991 12.828 1.425 2.041 3.041 3.898 4.679 5.76 2.357 2.621 7.361 8.499 9.738 11.165l1.217 1.396c2.862 3.179 5.126 7.081 7.928 10.173 1.519 1.683 3.216 3.088 5.289 3.947 3.844 1.568 9.986 1.015 14.114 1.294 2.379.114 8.762.186 11.091.278 3.387.086 7.208-.041 10.071-1.727 1.961-1.187 3.221-3.028 4.402-5.03 2.967-5.362 5.931-8.245 12.149-9.095 2.577-.36 5.12-.3 7.602-.194l14.791.678 3.697.165 1.849.082c1.309.045 2.65.074 3.968.529 1.42.426 2.622 1.824 3.099 3.172 2.77 8.081-.469 16.811 1.823 24.891 2.191 6.694 5.971 12.702 9.28 18.898 4.201 8.079 12.762 25.594 16.565 33.146l26.638 52.906a1.5 1.5 0 1 1-2.688 1.33zm85.692-50.685c-.12 0-.25-.015-.37-.047l-22.23-5.672c-.15-.037-.29-.098-.42-.178l-74.646-46.317a1.5 1.5 0 0 1-.704-1.4l2.362-28.357a1.5 1.5 0 0 1 .171-.581l48.657-91.216.06-.095 67.72-107.285a1.5 1.5 0 0 1 2.07-.467 1.49 1.49 0 0 1 .46 2.069l-67.69 107.238-48.486 90.895-2.26 27.133 73.666 45.711 22.01 5.615c.8.205 1.29 1.021 1.08 1.824-.17.678-.78 1.13-1.45 1.13z"/><path d="M1071.76 280.476c-15.05-1.883-30.27-6.479-44.79-10.869-24.36-13.978-50.652-30.066-74.575-44.623l-29.89-21.68.417.221-7.146-3.079-7.13-3.12 1.904-.759-4.887 10.398c-.303.651-1.005.956-1.67.828-18.652-2.172-44.716-8.48-63.305-12.366l-63.013-14.005-23.356-9.686-7.675-3.243a1.5 1.5 0 0 1 1.105-2.788l30.857 11.634 110.443 23.231c5.219 1.292 10.42 2.672 15.57 4.29l-1.67.828 4.887-10.397c.338-.722 1.179-1.042 1.903-.759 3.872 1.399 11.309 3.807 15.107 5.365l30.763 20.027 18.545 10.439 55.896 32.156-.86-.372c6.21 1.838 15.89 4.664 21.99 6.802 7.29 2.525 14.49 5.234 21.44 8.652a1.52 1.52 0 0 1 .68 2.042c-.29.589-.92.904-1.54.833zm-19.39-62.681a1.49 1.49 0 0 1-.9-.304l-33.57-25.436-119.798-45.768a1.5 1.5 0 0 1-.866-1.936 1.5 1.5 0 0 1 1.936-.866l119.998 45.844a1.69 1.69 0 0 1 .37.205l33.74 25.565a1.5 1.5 0 0 1 .29 2.101c-.29.39-.74.595-1.2.595zM718.686 434.26a44.11 44.11 0 0 0-6.083-21.106c-2.581-4.375-6.027-8.15-8.706-12.578-1.388-2.302-2.598-4.827-3.177-7.483-.905-3.936-.792-7.685-1.392-11.508-.478-3.612-2.091-6.817-4.193-9.762-4.44-6.325-10.241-11.315-14.603-17.822-2.69-4.082-2.751-7.214-2.971-11.765-.102-1.237-.254-2.197-.633-3.393-2.899-9.619-8.975-17.838-14.784-26.007-2.231-3.133-4.461-6.322-6.5-9.607-1.807-2.936-3.945-6.356-3.296-10.086.511-3.117 2.674-5.382 3.747-8.123 1.836-4.608.723-9.84-1.879-13.932-1.014-1.738-3.26-4.209-4.578-5.803-4.992-5.945-9.856-12.093-13.529-18.984-2.51-4.582-4.246-9.609-5.584-14.651a374.33 374.33 0 0 1-3.842-14.906c-1.23-4.745-1.856-9.987-3.897-14.358-3.901-8.249-16.437-11.347-24.279-15.6-4.269-2.088-8.468-5.971-12.979-7.228-5.257-1.607-8.59 2.228-13.338 3.704-7.777 2.24-17.124.987-23.691-3.875-2.284-1.694-4.136-4.145-5.201-6.782-2.12-5.043-2.981-10.222-3.9-15.244-.74-4.567-2.131-10.375-3.24-14.841l-3.595-14.891-.449-1.861c-.348-1.602-.856-2.986-.315-4.799.322-1.031 1.02-1.933 1.912-2.532.867-.57 1.693-.781 2.422-.953 2.155-.558 5.505-.141 5.513-3.115.105-2.308-1.246-4.454-2.03-6.558-1.877-5.35-1.429-11.629 1.84-16.377.562-.816 1.217-1.625 2.034-2.193 1.623-1.155 3.698-1.745 5.506-2.197 2.806-.704 5.658-1.013 8.407-1.713l.924-.251 1.847-.501 29.577-7.921c1.93-.422 2.663 2.288.799 2.891-.014.001-29.459 8.4-29.474 8.402l-1.843.519c-3.072.933-6.318 1.275-9.373 2.065-1.65.456-3.196.831-4.465 1.84-3.399 3.715-3.865 9.51-2.198 14.143.133.419.47 1.147.665 1.563 1.674 3.327 2.817 8.495-.651 11.228-1.353 1.056-2.941 1.404-4.469 1.635-1.081.14-2.127.298-2.895.714-.679.425-.347 1.486-.186 2.272l6.137 25.115c1.156 5.025 1.785 10.085 2.929 15.039.861 3.449 1.747 7.046 3.798 9.875 3.632 4.568 9.892 6.305 15.571 6.486 2.375.049 4.765-.209 6.951-.876 2.877-.856 6.42-3.637 9.955-4.081 3.266-.533 6.643.44 9.456 1.946 2.714 1.372 5.59 3.581 8.207 5.089 7.386 4.239 16.357 6.509 23.036 12.35 4.101 3.436 5.877 8.6 6.935 13.555 1.892 8.718 4.005 17.329 6.501 25.883 1.745 5.951 4.609 11.51 8.07 16.654 2.82 4.17 5.981 8.108 9.222 11.981 2.512 2.929 5.384 6.232 6.739 9.923 1.887 4.57 2.016 9.947-.159 14.447-.742 1.722-2.045 3.424-2.69 4.993-1.49 3.245.717 6.251 2.36 9.042 4.715 7.623 10.336 14.485 15.018 22.211 3.009 5.043 5.774 10.461 7.088 16.326.577 3.067.102 6.319 1.124 9.179 1.274 3.407 3.685 6.071 6.091 8.939 5.746 6.92 13.299 13.657 14.573 23.073.587 3.744.481 7.741 1.293 11.294.502 2.346 1.538 4.489 2.764 6.558 2.598 4.323 6.068 8.189 8.656 12.643 2.664 4.562 4.536 9.57 5.552 14.752a48.14 48.14 0 0 1 .846 7.862 1.5 1.5 0 0 1-1.462 1.537 1.5 1.5 0 0 1-1.536-1.466zm-335.267-.92c4.206-6.017 9.073-11.289 12.893-17.442 6.002-10.357 9.81-21.722 13.476-33.162l24.979-83.393c.886-3.435 1.653-6.857 2.238-10.335.787-5.443 2.107-11.457 1.364-16.775-.166-1.168-.532-2.405-1.155-3.359-1.156-1.491-3.292-2.985-4.755-4.63-5.504-5.867-6.619-13.527-7.556-21.016-3.56-22.694-8.361-45.271-10.569-68.152-1.03-9.646-1.823-19.323-2.399-29.009-.258-4.896-.703-9.936-.567-14.827.039-2.403.066-4.709-.169-6.817-.21-2.154-.767-3.68-2.088-5.339-1.869-2.724-5.23-5.05-5.315-8.766.015-1.774.921-3.235 1.999-4.408 1.016-.915 1.047-2.12.634-3.576-.65-2.252-2.364-3.817-3.665-5.798-1.109-1.578-2.011-3.691-1.764-5.732.361-3.214 2.568-5.747 4.014-8.45 1.679-3.095 2.105-6.686 1.5-10.159-.857-4.693-3.097-9.031-5.418-13.186-2.381-4.25-4.954-8.514-6.407-13.225-3.062-9.307-3.153-19.266-4.96-28.803-1.377-7.151-2.85-14.3-4.618-21.386a4.32 4.32 0 0 1 3.129-5.243 4.32 4.32 0 0 1 5.242 3.131c.086.344.128.71.131 1.05.007 4.882.188 9.743.402 14.599l.376 7.289c.66 11.905-.645 24.413 4.682 35.455 2.069 4.37 4.599 8.549 6.504 13.032 2.492 5.607 3.75 12.427.691 18.099-1.066 2.124-2.545 4.114-3.219 6.343-1.183 3.622 1.556 6.12 3.806 8.627 2.237 2.488 4.043 6.563 1.835 9.658-.733 1.04-1.589 2.227-.68 3.371 1.216 1.636 3.396 3.046 4.971 4.691 1.041 1.061 1.985 1.984 2.757 3.37.771 1.372 1.25 2.735 1.634 4.06 1.066 3.838 1.358 7.414 2.027 11.102l2.215 10.558c4.948 23.747 8.394 47.767 10.326 71.95l2.656 29.012c.426 4.255 1.097 8.208 3.465 11.591 1.409 1.964 2.77 2.916 4.641 4.886 1.092 1.149 2.179 2.836 2.735 4.352 2.828 7.565.405 16.306-.916 23.822-2.568 12.73-7.954 26.259-11.92 38.608-7.723 22.973-14.883 46.21-23.581 68.896-2.804 6.812-5.734 13.668-9.702 19.913-4.008 6.125-9.193 11.486-13.462 17.271a1.5 1.5 0 0 1-2.1.319c-.655-.485-.801-1.403-.337-2.067z"/><path d="M332.877 150.67c45.314-24.973 90.352-51.08 135.082-77.086 10.558-6.187 18.08-12.301 25.161-22.324 2.285-3.128 4.542-6.43 6.703-9.673 2.665-4.144 4.912-8.768 9.248-11.577 2.87-1.869 6.494-2.029 9.692-1.733 3.007.307 5.825.727 8.818.905 5.889.455 11.948.495 17.693 1.934 5.713 1.43 11.147 3.679 16.278 6.559 2.554 1.477 5.052 3.061 7.381 5.105 1.077.93.428 2.812-1.014 2.823-5.989.106-11.66-1.054-17.34-2.445-5.529-1.363-10.829-3.238-16.02-5.614-5.15-2.314-10.595-4.296-16.23-4.853-1.913-.201-3.798-.288-5.545.249-4.437 1.493-7.119 7.078-9.719 10.79-5.687 8.023-11.458 16.251-19.102 22.572-9.018 7.491-19.605 12.446-29.643 18.211l-60.093 34.191-59.873 34.578a1.5 1.5 0 1 1-1.477-2.61zm749.973-50.35h-.05l-133.923-4.033a1.5 1.5 0 0 1-1.453-1.544 1.51 1.51 0 0 1 1.543-1.454l133.923 4.033c.83.025 1.48.716 1.46 1.544a1.51 1.51 0 0 1-1.5 1.454zM970.787 79.827a415.92 415.92 0 0 1-15.039-.288 1.5 1.5 0 0 1-1.444-1.553 1.49 1.49 0 0 1 1.553-1.444c32.662 1.183 50.183-1.743 60.523-4.046 2.42-.54 5.31-1.427 6.14-3.507.2-.483.29-1.066.39-1.683.13-.803.28-1.713.69-2.589.91-1.98 2.98-3.4 5.53-3.798.01-.001.03-.005.04-.007 4.66-.728 5.87-1.507 5.43-5.59l-.81-7.261-1.53-14.536c-.11-1.182-.15-2.411-.2-3.713-.15-4.353-.31-8.855-2.77-11.716-.55-.634-1.24-1.183-1.98-1.763-.73-.578-1.49-1.176-2.18-1.915-2.54-2.75-2.42-8.377-2.32-12.898.03-1.34.06-2.605 0-3.527a1.5 1.5 0 0 1 1.41-1.588c.84-.053 1.54.58 1.59 1.407.06 1.045.03 2.371 0 3.774-.08 3.771-.2 8.935 1.52 10.795.53.565 1.16 1.065 1.83 1.595.82.643 1.67 1.309 2.4 2.164 3.15 3.66 3.34 8.925 3.5 13.569.04 1.261.09 2.451.18 3.553.43 4.819.99 9.721 1.53 14.462l.81 7.28c.74 6.933-3.35 8.156-7.98 8.878-1.21.19-2.7.839-3.28 2.096-.24.505-.34 1.141-.45 1.814-.12.715-.25 1.526-.56 2.316-1.36 3.382-5.14 4.619-8.28 5.319-13.41 2.987-28.06 4.404-46.243 4.404z"/><path d="M883.046 43.118a1.49 1.49 0 0 1-.786-.223 1.5 1.5 0 0 1-.489-2.064l15.59-25.285a1.5 1.5 0 0 1 .998-.686l23.537-4.443-2.051-9.846a1.5 1.5 0 0 1 .938-1.709l21.259-8.035a1.5 1.5 0 0 1 .993-.024l17.409 5.648 21.415 4.657 20.021-2.329 43.61-8.026c.82-.148 1.6.389 1.75 1.204a1.5 1.5 0 0 1-1.2 1.747l-43.67 8.035-.1.015-20.313 2.363c-.165.019-.331.011-.492-.024L959.734-.634c-.049-.01-.097-.023-.145-.039L942.61-6.182l-19.567 7.395 2.1 10.087c.082.394.002.805-.221 1.14a1.5 1.5 0 0 1-.968.64l-24.388 4.604-15.243 24.721a1.5 1.5 0 0 1-1.277.713zm11.72 162.672a1.49 1.49 0 0 1-.604-.128 1.5 1.5 0 0 1-.767-1.978l7.492-16.985-10.183-110.83a1.5 1.5 0 0 1 1.355-1.631c.821-.072 1.555.531 1.631 1.356l10.219 111.217c.023.254-.018.51-.121.743l-7.649 17.34a1.5 1.5 0 0 1-1.373.895z"/><path d="M1070.73 143.468c-25.5-4.613-51.26-10.094-76.59-15.616-32.67-7.262-65.411-14.757-97.57-24.04-1.681-.51-1.294-3.165.666-2.925 14.706 2.42 29.3 5.372 43.89 8.374 28.963 6.089 58.269 12.989 87.024 20.059l43.24 11.224c1.72.493 1.33 3.189-.66 2.924zm-458.58 48.676l5.344-25.354c.038-.18.107-.346.201-.492.009-.028 14.942-23.075 14.965-23.123l-.402.783 12.61-33.166a1.5 1.5 0 0 1 1.935-.869 1.51 1.51 0 0 1 .908 1.823c0 .008-9.928 34.083-9.929 34.093-.082.281-.223.542-.395.757l-17.211 21.382.252-.569-5.344 25.354c-.447 1.899-3.284 1.361-2.934-.619zM392.597 22.45a1.5 1.5 0 0 1-.543-2.899L441.229.478l8.477-15.126a1.5 1.5 0 0 1 2.041-.575 1.5 1.5 0 0 1 .574 2.042l-8.739 15.597c-.171.304-.442.539-.766.665l-49.678 19.268c-.178.069-.361.102-.541.102zm-45.681 61.584c-2.773 0-5.532-.009-8.247-.017L330.417 84a1.5 1.5 0 1 1 0-3l8.262.017L355.22 81c13.378-.124 23.522-1.126 35.785-5.877 6.068-2.351 12.342-4.783 18.123-7.943 12.041-6.584 22.319-17.19 32.258-27.447l6.105-6.247 5.398-5.501c8.018-8.226 16.31-16.732 25.907-23.323 7.647-5.251 15.546-9.64 24.336-14.424 1.652-.899 3.275-1.855 4.994-2.868 5.541-3.264 11.27-6.639 17.681-7.793 4.049-.729 8.129-.491 12.073-.262 3.715.22 5.084 2.523 6.266 5.067.457.985 1.015 2.076 1.838 2.566.768.458 1.799-.089 3.285-.975.568-.338 1.155-.688 1.744-.94l37.849-16.246c12.656-5.443 27.218-5.265 41.048-4.616 14.735.691 29.139 3.681 43.069 6.574l9.633 1.973 28.592-10.726-3.467-14.305a1.5 1.5 0 0 1 .884-1.739l26.7-11.053 9.756-39.58a1.5 1.5 0 0 1 1.815-1.098 1.5 1.5 0 0 1 1.097 1.816l-9.938 40.317a1.5 1.5 0 0 1-.883 1.027l-26.214 10.852 3.477 14.348a1.5 1.5 0 0 1-.931 1.758l-30.235 11.343a1.49 1.49 0 0 1-.818.067l-10.077-2.061c-13.816-2.868-28.102-5.835-42.601-6.514-13.481-.632-27.653-.815-39.723 4.376L552.192-12.21c-.405.173-.883.458-1.388.759-1.686 1.005-3.994 2.381-6.353.976-1.558-.927-2.378-2.489-3.024-3.88-1.117-2.405-1.812-3.224-3.722-3.337-3.769-.219-7.668-.446-11.367.22-5.883 1.059-11.377 4.296-16.69 7.426l-5.083 2.918c-8.716 4.744-16.543 9.092-24.072 14.263-9.354 6.423-17.54 14.822-25.458 22.944l-5.418 5.523-6.078 6.219c-10.095 10.418-20.533 21.189-32.973 27.991-5.953 3.255-12.32 5.722-18.478 8.108-12.689 4.916-23.117 5.952-36.84 6.08l-8.332.034z"/><path d="M721.987-127.876l-4.252 16.965-1.183-1.839 64.249 11.815c.451-.54 142.211 106.022 142.642 105.922a1.52 1.52 0 0 1 .471.587l28.528 63.209-.266-.402c.766.904 1.232 2.017 1.576 3.129.895 2.945.826 6.17.413 9.146-.742 5.599-3.276 11.375-5.314 16.62l-24.054 58.081-35.554 83.863-2.362 12.288-.061-.789 29.291 81.763-.718-.823 31.653 16.542c.404.211.674.588.768 1l4.252 18.905v.168c-.213 2.162-.878 4.261-1.408 6.341-1.536 5.547-3.524 10.945-5.676 16.274-2.882 7.113-5.924 14.147-9.588 20.914a1.51 1.51 0 0 1-2.051.603c-.615-.335-.904-1.038-.744-1.688 1.857-7.467 4.351-14.715 7.019-21.911 2.699-7.185 5.61-14.321 9.588-20.914l-.065.871-4.252-18.905.768 1.001-31.652-16.542a1.5 1.5 0 0 1-.717-.824l-29.291-81.763a1.52 1.52 0 0 1-.06-.79l2.362-12.288 53.316-126.629 6.45-15.858c1.928-4.968 4.418-10.628 5.131-15.931.421-3.309.551-6.992-1.22-9.816l-.266-.402-28.529-63.209c2.706 2.399-142.105-105.5-141.545-105.065a839.95 839.95 0 0 0 .623.272l-64.25-11.815c-.847-.152-1.395-1.006-1.183-1.84l4.252-16.965a1.5 1.5 0 0 1 1.819-1.091 1.5 1.5 0 0 1 1.09 1.82zm-69.264 395.477a1.5 1.5 0 0 1-1.026-2.595c1.238-1.16 2.386-2.588 3.601-4.1 1.926-2.396 3.918-4.874 6.475-6.483 1.723-1.084 3.684-1.398 5.582-1.703 2.033-.327 3.953-.635 5.172-1.885.774-.794 1.135-2.025 1.387-3.124.503-2.2.729-4.548.948-6.818.331-3.432.674-6.981 1.96-10.337 2.729-7.121 8.567-11.721 14.212-16.17 2.694-2.124 5.48-4.32 7.901-6.767a1.5 1.5 0 0 1 2.12-.011 1.5 1.5 0 0 1 .011 2.121c-2.551 2.579-5.411 4.833-8.177 7.013-5.571 4.391-10.834 8.538-13.267 14.887-1.141 2.976-1.449 6.17-1.775 9.552-.228 2.365-.464 4.811-1.01 7.199-.324 1.418-.863 3.216-2.164 4.55-1.911 1.96-4.531 2.38-6.843 2.752-1.674.268-3.255.523-4.461 1.281-2.131 1.341-3.963 3.619-5.735 5.823-1.226 1.527-2.495 3.105-3.887 4.409-.289.271-.657.406-1.024.406zM477.788-314.388v51.874a1.53 1.53 0 0 1-.159.671l-19.222 37.901 18.616 136.118c.51 3.332.787 6.513 2.007 9.564 3.622 8.51 10.445 15.119 15.929 22.535 5.071 6.739 7.545 14.818 9.799 22.745.076.331.269.825.371 1.152l.214.458c1.401 3.015 5.218 2.28 7.949 1.716 1.904-.437 3.894-.91 5.944-1.287s4.212-.662 6.423-.693c3.815-.056 7.561.742 11.143 1.897 4.326 1.335 8.632 2.692 12.928 4.367 8.944 3.506 15.343 6.796 19.703 15.848 1.819 3.631 3.11 7.367 4.865 10.931 2.34 5.042 5.801 9.184 10.626 11.97 9.099 5.276 19.729 7.532 28.214 14.25 7.698 6.024 12.905 14.716 18.222 22.683l2.296 3.313c1.187 1.773 2.819 2.861 4.898 3.459 9.45 2.786 19.042 2.246 29.194 3.966 8.155 1.377 15.982 4.531 22.977 8.917 5.218 3.203 9.909 7.321 14.19 11.645 4.286 4.224 8.47 8.491 12.573 12.91 5.042 5.353 8.798 11.695 15.501 14.835 14.713 6.355 31.124-9.869 32.322-24.117.412-3.801.196-7.73.011-11.711-.375-7.955-.797-15.885-1.651-23.758-.973-8.836-2.532-17.632-5.303-26.059-.941-2.802-2.003-5.594-3.059-8.358-1.39-3.508-3.047-7.179-5.944-9.61-2.832-2.367-6.782-2.948-10.166-1.318-3.451 1.535-6.476 4.262-10.234 6.073-3.773 2.015-8.221 1.465-12.243.77-3.953-.65-7.878-1.558-11.741-2.533-11.499-2.822-23.04-6.448-34.931-5.72-8.279.449-14.603 4.083-20.701 9.509-2.983 2.574-5.815 5.374-8.876 8.008-6.094 5.248-12.6 9.898-18.687 14.934-1.584 1.233-3.434-1.064-1.87-2.345 6.365-4.896 12.955-9.354 19.035-14.391 3.037-2.492 5.921-5.252 9.004-7.84 4.59-3.898 9.896-7.502 15.907-8.863C677.833-1 691.97 3.825 705.409 7.021c3.86.962 7.703 1.84 11.611 2.471 3.758.605 7.66 1.209 11.139-.672 3.546-1.74 6.549-4.494 10.245-6.181 3.921-1.955 8.906-1.301 12.257 1.518 4.836 4.104 6.545 10.354 8.784 16.008 6.389 16.972 7.59 35.309 8.671 53.214.61 8.343.877 16.487-3.529 24.088-6.593 11.995-21.048 21.493-34.565 14.598-6.392-3.395-10.727-9.779-15.489-14.777-4.085-4.28-8.324-8.49-12.604-12.594-4.182-4.101-8.561-7.87-13.585-10.865-15.971-9.905-27.6-7.958-45.179-10.353-2.077-.363-4.083-.763-6.145-1.371-5.385-1.576-7.082-4.434-10.079-8.777-8.618-12.684-13.429-21.387-28.324-27.487-4.464-1.944-9.343-3.728-13.847-6.008-2.871-1.46-5.631-3.183-8.064-5.369-3.26-2.869-5.755-6.651-7.616-10.485-1.797-3.57-3.125-7.391-4.868-10.888-2.502-5.239-6.004-8.4-11.307-10.762-5.283-2.5-10.771-4.311-16.408-6.067-1.753-.539-3.693-1.18-5.477-1.538-5.628-1.267-10.637-.065-16.47 1.284-4.89 1.204-11.002.986-13.868-3.944-.678-1.047-1.099-2.29-1.442-3.479-2.037-7.302-4.267-14.887-8.8-20.973-6.012-8.152-13.653-15.575-17.01-25.45-.968-3.026-1.229-6.162-1.684-9.245l-10.989-88.984-5.335-47.501 19.515-39.615-.158.671v-51.874a1.5 1.5 0 0 1 1.499-1.5 1.5 1.5 0 0 1 1.5 1.5z"/><path d="M652.721 62.081a1.5 1.5 0 0 1-1.326-2.199l28.599-54.389a1.5 1.5 0 0 1 2.025-.629 1.5 1.5 0 0 1 .629 2.026l-28.599 54.388a1.5 1.5 0 0 1-1.328.802zm60.166 30.778a1.5 1.5 0 0 1-.791-2.775c5.782-3.583 9.427-6.726 10.951-12.189 1.798-6.448 2.176-13.901 1.123-22.153-1.439-11.268-5.387-22.194-9.205-32.761l-4.362-12.492a1.5 1.5 0 0 1 .962-1.89 1.5 1.5 0 0 1 1.889.962c1.348 4.142 2.865 8.341 4.331 12.401 3.874 10.72 7.879 21.804 9.359 33.4 1.105 8.651.698 16.504-1.209 23.339-1.971 7.068-7.138 10.759-12.26 13.933-.246.152-.519.225-.788.225zm53.063-19.306c-4.426 1.254-9.36.779-13.002 3.777-4.183 3.77-7.218 10.185-8.583 15.653-2.076 9.184-.607 18.745-.409 28.244.326 18.347 2.701 36.494 5.122 54.719.664 5.154 2.352 10.289 4.915 14.78 2.745 4.819 6.907 9.208 12.317 10.404 1.749.386 2.854 2.117 2.469 3.866-.388 1.769-2.157 2.879-3.917 2.458-3.73-.9-7.086-2.9-9.748-5.368-5.203-4.867-8.315-11.257-10.223-17.933-.928-3.165-1.379-6.625-1.701-9.914-2.213-19.088-3.815-38.417-3.73-57.703-.225-8.723-.929-18.293 1.987-26.895 2.052-5.7 5.757-12.837 11.105-16.053 3.826-2.155 8.871-2.016 12.638-2.938 1.918-.427 2.657 2.331.76 2.902zM527.646 30.634c-.47-3.997-.703-8.059-.859-12.087-.258-3.625-.396-7.435 1.061-10.846 1.018-2.501 3.195-4.468 4.728-6.542 2.246-3.376 5.337-6.17 8.219-8.926 1.403-1.362 2.736-2.763 3.823-4.313a1.51 1.51 0 0 1 2.103-.369 1.52 1.52 0 0 1 .131 2.37L542.366-6.1c-3.379 3.175-7.176 6.769-7.555 11.611-.116 1.834-.112 3.756-.61 5.528-.612 2.741-1.761 5.236-2.513 7.984-.376 1.334-.58 2.838-.766 4.214-.266 2.361-.398 4.793-.286 7.168.037 1.912-2.724 2.141-2.99.23zm49.823-177.356v22.213l-.285-.88 35.274 48.68-.817-.566 39.584 10.87c.666.183 1.102.788 1.103 1.447v34.974a1.5 1.5 0 0 1-.316.921l-12.498 16.069a1.54 1.54 0 0 1-.499.413L606.839 4.072l-6.034 3.122-.502.26c-.06.029-.044.027-.049.03-.225.139-.38.402-.606.697-1.982 3.098-2.906 6.792-4.537 10.115l-.992 2.047c-1.947 3.978-3.929 8.045-5.023 12.297-1.079 4.286-1.554 8.759-1.86 13.177l-.197 3.379c-.093 2.348-.8 4.919.402 6.871 1.795 2.286 4.74 3.413 6.762 5.676 2.481 2.927 4.493 6.189 7.021 8.883 3.055 3.218 6.164 6.45 9.736 9.056a14.4 14.4 0 0 0 1.765 1.114c4.493 2.404 9.864 2.303 14.931 2.734 4.588.381 9.14 1.189 13.593 2.334 14.603 3.965 35.396 12.061 41.057 27.323 1.521 4.345 1.207 8.34 5.909 10.676 3.876 2.056 8.105 3.653 12.361 4.767 1.416.383 3.032.678 4.599 1.642 1.585.859 2.564 2.943 2.708 4.652.384 3.191-.109 6.243-.466 9.329-.258 3.151-1.378 7.959-5.37 8.18-1.637.172-3.354-.714-4.786-1.171a8.65 8.65 0 0 0-3.947-.34c-4.395.742-7.474 4.011-11.395 6.301a1.16 1.16 0 0 1-1.595-.396c-.331-.551-.152-1.267.399-1.597 2.485-1.49 4.811-3.469 7.615-4.998 2.805-1.623 6.481-2.32 9.629-1.229 1.305.383 2.247.974 3.507 1.055 2.123.202 2.909-2.179 3.249-3.941.36-2.142.606-4.459.793-6.597.125-2.018.275-4.25-.527-6.033-.972-1.739-3.209-1.964-5.025-2.494-4.501-1.176-8.815-2.787-12.943-4.966-9.203-4.979-2.578-11.818-14.55-22.418-10.562-9.133-26.882-14.806-40.61-16.944-6.093-.983-12.2-.334-18.176-2.498-3.015-1.066-5.569-3.154-7.926-5.231-2.307-2.063-4.427-4.231-6.533-6.457-2.65-2.818-4.648-6.026-7.036-8.86-2.044-2.185-5.175-3.409-7.027-5.972-1.978-2.988-.899-6.573-.852-9.736.301-5.38.73-10.703 2.046-15.983.781-3.041 1.948-5.942 3.227-8.722 1.069-2.367 2.326-4.8 3.413-7.151 1.357-3.168 2.347-6.555 4.263-9.51.379-.583 1.015-1.316 1.709-1.666l.502-.261 2.008-1.046 4.017-2.091c.006-.003 32.139-16.728 32.144-16.731l-.493.41 12.498-16.069-.316.921v-34.974l1.102 1.446-39.583-10.87c-.342-.094-.624-.3-.817-.566l-35.275-48.68a1.49 1.49 0 0 1-.285-.881v-22.213a1.5 1.5 0 0 1 1.499-1.5 1.5 1.5 0 0 1 1.499 1.5z"/><path d="M675.705 139.782l7.135-3.733c2.068-.914 4.154-2.105 6.503-2.314.364-.005.736.05 1.067.207.279.129.356.206.689.333 5.021 1.824 10.321 3.114 15.483 4.536-1.047-.087 20.78.929 20.567.907.162.008.286.144.279.306-.007.154-.133.275-.285.279l-20.794.503c-.064.005-.149-.011-.212-.024-5.417-1.101-10.818-2.011-16.145-3.561-.275-.074-.741-.283-1.053-.453a.82.82 0 0 0 .154.098c.063.033.14.055.209.069.043.017.09.033.139.027 0 .008-.034.012-.064.019-1.682.499-3.257 1.445-4.843 2.313a130.73 130.73 0 0 0-6.638 4.079c-2.449 1.513-4.668-2.086-2.191-3.591zm185.181 213.193c3.237 6.663 6.165 17.164 5.67 24.576-.039.399-.013.984-.302 1.289l-19.369 23.631.314-.676-9.417 50.376a1.5 1.5 0 0 1-1.749 1.199 1.5 1.5 0 0 1-1.198-1.75l9.416-50.376c.048-.255.162-.488.315-.676l19.369-23.631-.301 1.289c-1.123-1.898-1.888-3.879-2.576-5.877-1.891-6.059-3.071-12.324-3.094-18.7.024-1.586 2.205-2.1 2.922-.674zM764.941 49.971c-.435 0-.866-.188-1.162-.552-12.241-15.01-22.057-29.769-30.01-45.121-.495-.956-2.573-4.676-5.204-9.386-17.315-30.996-17.217-31.328-16.927-32.313a1.56 1.56 0 0 1 .749-.919c7.504-3.984 15.686-6.796 23.422-9.335 1.654-.543 3.645-.956 5.753-1.394 5.765-1.198 12.3-2.555 14.051-6.886 1.711-4.231 2.402-9.515 3.071-14.625.339-2.591.659-5.038 1.105-7.363l4.31-22.296a1.5 1.5 0 0 1 1.759-1.184 1.5 1.5 0 0 1 1.184 1.759l-4.308 22.287c-.429 2.236-.744 4.641-1.077 7.187-.693 5.297-1.41 10.774-3.264 15.36-2.352 5.818-10.042 7.415-16.222 8.699-2.023.42-3.934.817-5.427 1.307-7.214 2.367-14.813 4.972-21.797 8.534 2.073 4.368 11.141 20.601 16.235 29.72l5.249 9.469c7.857 15.166 17.563 29.757 29.671 44.605a1.5 1.5 0 0 1-.214 2.11 1.49 1.49 0 0 1-.947.338zm302.009-216.196c-13.31 1.79-26.55 3.971-39.76 6.32-8.83 1.533-17.55 3.516-26.41 5.038-8.484 1.482-17.601 1.613-24.799 6.415-6.866 4.556-11.95 11.333-18.148 16.763-2.089 1.83-4.277 3.537-6.495 5.19-3.547 2.627-7.128 5.333-9.933 8.771-1.397 1.701-2.681 3.516-3.844 5.357-2.29 3.79-4.031 7.966-6.307 11.821-1.43 2.444-3.148 4.949-5.464 6.747-1.712 1.312-3.379 2.808-4.798 4.423-6.639 7.491-10.487 18.824-10.785 28.777-.1 9.496 3.013 18.986 1.365 28.526-1.202 6.158-4.126 11.926-7.955 16.851-2.782 3.591-6.094 6.748-9.72 9.471-.963.706-1.844 1.456-3.019 1.883-1.193.437-2.477.29-3.658.126l-6.661-.941c-4.461-.738-9.055-1.782-12.967-4.174-3.847-2.404-6.973-5.52-11.049-7.489-8.421-4.365-17.798-6.492-26.513-10.288-6.642-2.943-10.64-1.599-16.976 1.257l-.769.336c-.292.109-.576.238-.877.326-1.765.59-3.802.466-5.517-.078-3.088-.893-5.373-2.701-8.398-2.627-2.328.095-4.07 2.01-5.802 3.412a253.75 253.75 0 0 0-7.494 6.65c-9.874 9.096-19.071 18.818-28.762 28.154a1.5 1.5 0 1 1-2.055-2.185l29.254-27.688c2.508-2.249 5.056-4.46 7.652-6.61 3.17-2.669 5.492-4.693 9.908-3.459 3.367.954 5.868 3.049 9.217 2.884.977-.038 2.011-.442 2.903-.839 7.968-3.538 11.848-4.229 19.936-.477 9.253 3.918 19.322 6.204 27.981 11.554 2.819 1.806 5.352 4.153 8.15 5.874 3.757 2.301 8.102 3.279 12.415 4.012 2.189.361 4.403.645 6.623.956 1.095.158 2.122.265 2.979-.047.872-.306 1.754-1.014 2.642-1.67 7.043-5.247 12.864-12.377 15.797-20.703 3.238-8.471 1.144-17.479.238-26.235-.213-2.244-.397-4.502-.367-6.782.029-4.567.966-9.048 2.233-13.413 2.049-6.803 5.465-13.32 10.555-18.343.586-.521 1.294-1.238 1.92-1.727.56-.466 1.975-1.543 2.505-2.117 4.58-4.827 6.622-11.463 10.063-17.117 2.157-3.507 5.579-7.723 8.022-11.036 2.717-3.644 5.596-7.26 8.952-10.321 5.08-4.367 9.447-9.517 14.587-13.888 10.495-9.241 19.867-8.64 32.715-9.967 13.28-1.635 26.53-3.972 39.77-5.976l26.43-4.66a1.5 1.5 0 0 1 1.76 1.186 1.5 1.5 0 0 1-1.27 1.774z"/><path d="M833.392 488.029a14.99 14.99 0 0 1-.651-1.881c-2.094-7.674.341-15.877 3.262-23.236 13.086-32.967 36.285-61.07 45.645-95.451 2.343-8.605 3.233-19.311-3.115-25.175-5.134-4.742-12.729-4.157-19.511-3.833-31.497 1.509-63.381-8.828-88.773-28.779s-44.112-49.377-52.123-81.928c-3.555-14.444-4.975-30.155.168-44.044s18.276-25.18 32.193-23.649c13.636 1.5 24.414 14.206 38.033 15.88 12.338 1.517 23.888-6.331 33.523-14.698 18.306-15.897 34.17-34.99 46.771-56.289 7.194-12.162 13.361-27.842 6.743-40.371-3.454-6.541-9.748-10.715-15.911-14.335-15.612-9.17-57.737-35.545-76.027-27.504-3.798 1.67-6.092 6.01-6.681 10.349-5.189 38.229 15.938 96.582-35.678 107.348-30.825 6.43-46.77-15.507-53.502-21.558s-18.779-19.668-46.416-27.611-48.896-13.616-56.691-38.2c0-8.699 1.063-23.45 23.74-34.796 14.881-7.564 35.077-18.533 41.455-38.2 0 0 8.149-27.988.709-44.63s-13.109-15.507-30.111-20.422c-24.682-7.134-46.141-31.536-38.729-60.575 3.878-15.189 14.546-27.117 22.612-40.297 10.683-17.456 16.979-37.564 26.939-55.5 8.107-14.6-2.218-27.311 8.143-40.184 4.464-5.547 18.994-42.152 25.437-39.665 13.042-.218-12.288 62.853-23.321 80.646-6.891 11.112-9.995 24.39-15.827 36.173-8.233 16.636-21.644 29.807-30.113 46.307s-10.529 39.623 2.615 52.157c10.417 9.934 26.129 9.477 38.955 15.38 23.919 11.007 32.512 49.148 22.64 73.137-5.286 12.843-15.551 22.496-25.91 31.128-8.879 7.399-18.064 14.38-27.519 20.917-5.329 3.684-11.222 7.927-12.534 14.558-2.053 10.375 8.183 18.625 17.502 22.301 21.602 8.522 50.982.978 68.758 18.949 13.94 14.093 23.617 36.564 44.24 40.369 33.957 6.264 50.005-32.298 44.126-62.459-2.452-12.582-7.387-25.888-2.765-37.755 3.541-9.089 12.238-15.046 21.28-16.979s18.423-.382 27.367 2.016c18.052 4.839 35.285 13.137 50.63 24.381 11.981 8.778 23.62 21.035 24.454 36.521.549 10.212-3.749 19.944-8.204 29-11.108 22.582-24.231 44.69-42.918 60.584-23.236 19.762-54.313 26.616-81.83 13.09-7.523-3.698-16.692-8.656-23.337-3.378-3.281 2.606-4.752 7.049-5.63 11.313-6.185 30.056 8.723 60.563 27.054 84.312 16.847 21.827 38.741 41.58 65.025 45.135 20.027 2.709 41.649-4.08 59.851 5.241 15.094 7.73 24.207 25.639 25.135 43.481s-5.359 35.429-14.56 50.358c-8.013 13.002-18.199 24.334-26.452 37.165s-14.663 27.914-13.586 43.435c-6.122 3.314-13.74-1.51-16.58-8.248z"/><path d="M845.72 501c-1.595 0-3.226-.301-4.834-.907-4.59-1.73-8.56-5.679-10.619-10.563v-.001a19.04 19.04 0 0 1-.817-2.359c-2.44-8.944.348-18.003 3.398-25.685 5.658-14.254 13.23-27.712 20.553-40.726 9.685-17.213 19.7-35.012 24.956-54.318 1.583-5.813 3.419-16.322-2.067-21.389-3.892-3.594-10.194-3.285-16.284-2.984l-.83.04c-16.065.767-32.155-1.417-47.825-6.497a138.93 138.93 0 0 1-43.133-22.991c-12.951-10.176-24.182-22.668-33.383-37.13s-15.938-30.212-20.023-46.814c-4.529-18.401-4.432-33.552.296-46.318 2.822-7.622 7.789-14.451 13.986-19.229 6.764-5.213 14.281-7.535 21.744-6.715 7.557.831 14.113 4.671 20.453 8.384 5.928 3.473 11.529 6.752 17.621 7.501 11.62 1.429 22.652-6.679 30.968-13.902 18.094-15.712 33.582-34.352 46.036-55.405 9.115-15.406 11.354-27.727 6.656-36.62-3.082-5.836-9.141-9.733-14.579-12.927l-3.514-2.08c-8.969-5.325-22.523-13.373-36.12-19.273-19.56-8.488-28.978-7.934-33.434-5.974-2.312 1.016-4.116 3.957-4.595 7.492-1.328 9.781-.874 20.892-.394 32.656 1.325 32.454 2.827 69.238-38.018 77.757-4.089.853-7.939 1.233-11.554 1.233-21.664.001-34.981-13.624-41.896-20.698-1.144-1.169-2.132-2.18-2.917-2.885s-1.632-1.503-2.531-2.35c-7.03-6.618-18.795-17.694-42.568-24.527l-1.558-.447c-27.518-7.9-49.253-14.14-57.489-40.112l-.181-.57v-.602c0-11.753 2.923-26.705 25.712-38.108 16.175-8.222 33.927-18.473 39.652-36.024.371-1.312 7.502-27.095.874-41.918-5.616-12.561-9.456-13.566-20.857-16.549l-7.057-1.918c-15.682-4.533-29.432-15.418-36.783-29.117-5.999-11.181-7.505-23.612-4.356-35.95 2.97-11.632 9.617-21.341 16.046-30.73 2.368-3.458 4.817-7.035 7.003-10.607 5.699-9.313 10.249-19.689 14.649-29.724 3.738-8.526 7.603-17.342 12.211-25.64 3.306-5.953 3.059-11.61 2.798-17.6-.31-7.128-.662-15.207 5.694-23.103 1.182-1.469 3.823-6.793 6.376-11.941 9.429-19.009 15.725-30.617 22.189-28.982 2.275.156 4.185 1.455 5.301 3.631 1.695 3.304 1.652 8.702-.134 16.986-1.365 6.332-3.804 14.42-7.052 23.389-5.795 16.001-13.83 33.791-19.107 42.301-3.828 6.173-6.42 13.022-9.164 20.274-1.955 5.168-3.978 10.512-6.49 15.589-4.351 8.79-10.1 16.646-15.661 24.243-5.148 7.033-10.471 14.306-14.477 22.112-7.855 15.303-9.727 36.592 1.892 47.672 5.844 5.573 13.775 7.572 22.172 9.689 5.285 1.332 10.749 2.709 15.857 5.06 10.58 4.869 19.163 15.03 24.171 28.612 5.993 16.256 6.088 35.169.25 49.356-5.556 13.5-16.231 23.618-26.939 32.54-8.923 7.435-18.264 14.535-27.765 21.103-5.464 3.777-10.067 7.306-11.044 12.244-1.521 7.688 6.884 14.779 15.337 18.113 7.929 3.128 16.98 3.975 26.563 4.873 15.535 1.455 31.6 2.959 43.364 14.852 4.304 4.352 8.217 9.472 12.001 14.424 8.864 11.599 17.236 22.555 30.466 24.996 11.333 2.091 21.284-1.177 28.777-9.453 10.284-11.357 14.87-30.911 11.41-48.656-.479-2.457-1.047-4.91-1.649-7.508-2.485-10.716-5.054-21.797-.925-32.396 3.69-9.473 12.798-16.815 23.771-19.162 10.454-2.236 20.923-.076 28.874 2.055 18.557 4.974 35.963 13.355 51.736 24.912 16.454 12.056 25.18 25.287 25.935 39.327.602 11.186-3.914 21.404-8.59 30.911-9.639 19.594-23.33 44.32-43.817 61.744-12.188 10.366-26.326 17.204-40.886 19.776-15.327 2.707-30.72.555-44.513-6.224l-1.088-.537c-6.598-3.261-14.076-6.957-18.77-3.23-1.992 1.583-3.367 4.494-4.328 9.163-6.32 30.71 10.841 61.108 26.351 81.202 20.208 26.181 41.34 40.928 62.81 43.832 7.158.968 14.782.665 22.154.373 13.049-.516 26.542-1.052 38.749 5.199 15.386 7.879 26.013 26.162 27.075 46.577 1.11 21.371-7.609 40.384-15.119 52.571-4.326 7.018-9.301 13.6-14.113 19.966-4.208 5.567-8.559 11.324-12.377 17.258-9.49 14.756-13.862 28.582-12.993 41.095l.168 2.43-2.036 1.102c-1.795.972-3.77 1.461-5.802 1.461zm-9.203-14.472c1.286 3.05 3.834 5.605 6.651 6.666.869.328 2.023.602 3.265.452-.194-13.4 4.608-27.806 14.3-42.875 3.967-6.167 8.403-12.036 12.693-17.711 4.709-6.23 9.578-12.671 13.721-19.393 6.943-11.267 15.009-28.765 14.001-48.145-.925-17.791-10.03-33.643-23.195-40.386-10.681-5.469-22.751-4.991-35.531-4.483-7.647.303-15.555.616-23.269-.427-23.261-3.146-45.883-18.77-67.238-46.438-16.477-21.346-34.668-53.841-27.756-87.423.84-4.083 2.472-9.922 6.93-13.463 7.965-6.327 17.822-1.455 25.742 2.461l1.075.53c12.542 6.164 26.556 8.119 40.527 5.651 13.409-2.368 26.458-8.69 37.733-18.28 19.489-16.574 32.693-40.463 42.02-59.423 4.23-8.598 8.318-17.772 7.816-27.09-.627-11.663-8.356-23.006-22.971-33.714-15.099-11.063-31.762-19.087-49.526-23.848-7.253-1.944-16.746-3.926-25.859-1.977-8.764 1.874-15.963 7.544-18.789 14.797-3.261 8.373-1.07 17.824 1.25 27.83l1.706 7.775c3.901 20.013-1.4 42.208-13.192 55.231-9.142 10.097-21.199 14.101-34.872 11.577-15.755-2.906-25.34-15.45-34.61-27.581-3.815-4.992-7.419-9.708-11.403-13.736-10.03-10.14-24.223-11.469-39.25-12.876-9.611-.9-19.549-1.831-28.34-5.298-11.501-4.537-22.042-14.487-19.667-26.488 1.646-8.315 8.801-13.261 14.025-16.873a383.23 383.23 0 0 0 27.273-20.73c10-8.333 19.936-17.701 24.881-29.716 5.131-12.468 4.995-29.225-.353-43.734-4.334-11.754-11.616-20.481-20.506-24.572-4.556-2.097-9.492-3.341-14.719-4.658-6.694-1.687-13.56-3.418-19.597-7.101 5.761 4.696 12.569 8.32 19.856 10.427 2.53.731 4.851 1.338 6.898 1.874 12.248 3.205 18.396 4.814 25.41 20.503 7.928 17.731-.179 46.093-.528 47.291l-.034.111c-6.57 20.259-25.755 31.428-43.221 40.307-21.141 10.578-21.767 23.988-21.785 30.881 7.203 21.802 26.279 27.277 52.596 34.832l1.558.448c25.322 7.278 37.841 19.063 45.321 26.104l2.412 2.24c.953.857 2.015 1.943 3.244 3.2 7.791 7.969 22.293 22.803 47.393 17.567 35.055-7.312 33.807-37.888 32.485-70.259-.472-11.584-.961-23.562.459-34.024.832-6.135 4.192-11.195 8.767-13.207 8.319-3.657 20.953-1.707 38.626 5.962 13.983 6.067 27.757 14.245 36.871 19.657l3.487 2.064c6.264 3.679 13.278 8.234 17.245 15.743 6.031 11.418 3.733 26.263-6.831 44.121-12.852 21.724-28.836 40.96-47.507 57.174-9.36 8.128-21.921 17.235-36.077 15.494-7.428-.913-13.887-4.696-20.134-8.355-6.007-3.518-11.68-6.841-17.859-7.52-7.28-.802-13.278 2.478-17.028 5.369-5.15 3.969-9.278 9.647-11.626 15.986-4.171 11.266-4.185 24.929-.041 41.77 3.888 15.797 10.302 30.79 19.065 44.563s19.453 25.666 31.776 35.348 26.137 17.044 41.061 21.882 30.243 6.923 45.527 6.189l.821-.04c7.088-.35 15.123-.745 21.085 4.761 6.299 5.817 7.739 15.833 4.164 28.962-5.505 20.219-15.752 38.431-25.663 56.044-7.201 12.798-14.647 26.032-20.117 39.813-2.579 6.496-4.967 14.045-3.128 20.786a11.44 11.44 0 0 0 .486 1.403zM664.202-317.563c-.651.433-2.525 2.102-6.18 8.338-2.954 5.04-6.048 11.279-8.778 16.783-3.547 7.15-5.632 11.292-7.235 13.286-4.582 5.692-4.346 11.121-4.046 17.995.282 6.485.602 13.835-3.749 21.67-4.437 7.992-8.231 16.644-11.9 25.012-4.5 10.264-9.154 20.878-15.118 30.623-2.285 3.733-4.787 7.389-7.208 10.923-6.34 9.261-12.329 18.008-14.966 28.336-2.456 9.62-1.558 19.314 2.586 28.187-1.448-4.242-2.209-8.965-2.247-14.075-.072-9.719 2.492-20.143 7.219-29.352 4.274-8.327 9.771-15.838 15.087-23.101 5.377-7.346 10.936-14.941 15.001-23.156 2.349-4.747 4.305-9.915 6.196-14.912 2.75-7.269 5.595-14.785 9.804-21.573 5.168-8.334 13.045-25.885 18.729-41.731 8.148-22.716 8.135-31.424 7.352-33.235l-.478.008-.069-.026z"/></g></g><defs><clipPath id="A"><path fill="#fff" d="M0 0h1142v485H0z"/></clipPath></defs></svg>